# XFOLD single T panel (ninja fold)
# verts=588 faces=1068 loops=1
# body=0.60x0.64 crease_x=±0.100
v -0.177060 -0.391631 0.000000
v -0.145882 -0.396694 0.000000
v -0.113109 -0.399870 0.000000
v -0.080123 -0.401807 0.000000
v -0.048125 -0.402043 0.000000
v -0.015955 -0.402026 0.000000
v 0.016045 -0.401941 0.000000
v 0.048045 -0.401855 0.000000
v 0.080045 -0.401770 0.000000
v 0.113109 -0.399870 0.000000
v 0.145882 -0.396694 0.000000
v 0.177060 -0.391631 0.000000
v -0.275069 -0.356816 0.000000
v -0.248018 -0.369894 0.000000
v -0.216167 -0.381718 0.000000
v -0.176000 -0.353102 0.000000
v -0.144000 -0.353102 0.000000
v -0.112000 -0.353102 0.000000
v -0.080000 -0.353102 0.000000
v -0.048000 -0.353102 0.000000
v -0.016000 -0.353102 0.000000
v 0.016000 -0.353102 0.000000
v 0.048000 -0.353102 0.000000
v 0.080000 -0.353102 0.000000
v 0.112000 -0.353102 0.000000
v 0.144000 -0.353102 0.000000
v 0.176000 -0.353102 0.000000
v 0.216167 -0.381718 0.000000
v 0.248018 -0.369894 0.000000
v 0.275069 -0.356816 0.000000
v -0.310249 -0.324841 0.000000
v -0.272000 -0.321102 0.000000
v -0.240000 -0.321102 0.000000
v -0.208000 -0.321102 0.000000
v -0.176000 -0.321102 0.000000
v -0.144000 -0.321102 0.000000
v -0.112000 -0.321102 0.000000
v -0.080000 -0.321102 0.000000
v -0.048000 -0.321102 0.000000
v -0.016000 -0.321102 0.000000
v 0.016000 -0.321102 0.000000
v 0.048000 -0.321102 0.000000
v 0.080000 -0.321102 0.000000
v 0.112000 -0.321102 0.000000
v 0.144000 -0.321102 0.000000
v 0.176000 -0.321102 0.000000
v 0.208000 -0.321102 0.000000
v 0.240000 -0.321102 0.000000
v 0.272000 -0.321102 0.000000
v 0.310249 -0.324841 0.000000
v -0.327572 -0.289075 0.000000
v -0.272000 -0.289102 0.000000
v -0.240000 -0.289102 0.000000
v -0.208000 -0.289102 0.000000
v -0.176000 -0.289102 0.000000
v -0.144000 -0.289102 0.000000
v -0.112000 -0.289102 0.000000
v -0.080000 -0.289102 0.000000
v -0.048000 -0.289102 0.000000
v -0.016000 -0.289102 0.000000
v 0.016000 -0.289102 0.000000
v 0.048000 -0.289102 0.000000
v 0.080000 -0.289102 0.000000
v 0.112000 -0.289102 0.000000
v 0.144000 -0.289102 0.000000
v 0.176000 -0.289102 0.000000
v 0.208000 -0.289102 0.000000
v 0.240000 -0.289102 0.000000
v 0.272000 -0.289102 0.000000
v 0.327572 -0.289075 0.000000
v -0.327536 -0.257075 0.000000
v -0.272000 -0.257102 0.000000
v -0.240000 -0.257102 0.000000
v -0.208000 -0.257102 0.000000
v -0.176000 -0.257102 0.000000
v -0.144000 -0.257102 0.000000
v -0.112000 -0.257102 0.000000
v -0.080000 -0.257102 0.000000
v -0.048000 -0.257102 0.000000
v -0.016000 -0.257102 0.000000
v 0.016000 -0.257102 0.000000
v 0.048000 -0.257102 0.000000
v 0.080000 -0.257102 0.000000
v 0.112000 -0.257102 0.000000
v 0.144000 -0.257102 0.000000
v 0.176000 -0.257102 0.000000
v 0.208000 -0.257102 0.000000
v 0.240000 -0.257102 0.000000
v 0.272000 -0.257102 0.000000
v 0.327536 -0.257075 0.000000
v -0.327737 -0.225762 0.000000
v -0.272000 -0.225102 0.000000
v -0.240000 -0.225102 0.000000
v -0.208000 -0.225102 0.000000
v -0.176000 -0.225102 0.000000
v -0.144000 -0.225102 0.000000
v -0.112000 -0.225102 0.000000
v -0.080000 -0.225102 0.000000
v -0.048000 -0.225102 0.000000
v -0.016000 -0.225102 0.000000
v 0.016000 -0.225102 0.000000
v 0.048000 -0.225102 0.000000
v 0.080000 -0.225102 0.000000
v 0.112000 -0.225102 0.000000
v 0.144000 -0.225102 0.000000
v 0.176000 -0.225102 0.000000
v 0.208000 -0.225102 0.000000
v 0.240000 -0.225102 0.000000
v 0.272000 -0.225102 0.000000
v 0.327737 -0.225762 0.000000
v -0.328627 -0.193787 0.000000
v -0.272000 -0.193102 0.000000
v -0.240000 -0.193102 0.000000
v -0.208000 -0.193102 0.000000
v -0.176000 -0.193102 0.000000
v -0.144000 -0.193102 0.000000
v -0.112000 -0.193102 0.000000
v -0.080000 -0.193102 0.000000
v -0.048000 -0.193102 0.000000
v -0.016000 -0.193102 0.000000
v 0.016000 -0.193102 0.000000
v 0.048000 -0.193102 0.000000
v 0.080000 -0.193102 0.000000
v 0.112000 -0.193102 0.000000
v 0.144000 -0.193102 0.000000
v 0.176000 -0.193102 0.000000
v 0.208000 -0.193102 0.000000
v 0.240000 -0.193102 0.000000
v 0.272000 -0.193102 0.000000
v 0.328627 -0.193787 0.000000
v -0.329638 -0.162392 0.000000
v -0.272000 -0.161102 0.000000
v -0.240000 -0.161102 0.000000
v -0.208000 -0.161102 0.000000
v -0.176000 -0.161102 0.000000
v -0.144000 -0.161102 0.000000
v -0.112000 -0.161102 0.000000
v -0.080000 -0.161102 0.000000
v -0.048000 -0.161102 0.000000
v -0.016000 -0.161102 0.000000
v 0.016000 -0.161102 0.000000
v 0.048000 -0.161102 0.000000
v 0.080000 -0.161102 0.000000
v 0.112000 -0.161102 0.000000
v 0.144000 -0.161102 0.000000
v 0.176000 -0.161102 0.000000
v 0.208000 -0.161102 0.000000
v 0.240000 -0.161102 0.000000
v 0.272000 -0.161102 0.000000
v 0.329638 -0.162392 0.000000
v -0.331245 -0.130473 0.000000
v -0.272000 -0.129102 0.000000
v -0.240000 -0.129102 0.000000
v -0.208000 -0.129102 0.000000
v -0.176000 -0.129102 0.000000
v -0.144000 -0.129102 0.000000
v -0.112000 -0.129102 0.000000
v -0.080000 -0.129102 0.000000
v -0.048000 -0.129102 0.000000
v -0.016000 -0.129102 0.000000
v 0.016000 -0.129102 0.000000
v 0.048000 -0.129102 0.000000
v 0.080000 -0.129102 0.000000
v 0.112000 -0.129102 0.000000
v 0.144000 -0.129102 0.000000
v 0.176000 -0.129102 0.000000
v 0.208000 -0.129102 0.000000
v 0.240000 -0.129102 0.000000
v 0.272000 -0.129102 0.000000
v 0.331245 -0.130473 0.000000
v -0.332921 -0.099158 0.000000
v -0.272000 -0.097102 0.000000
v -0.240000 -0.097102 0.000000
v -0.208000 -0.097102 0.000000
v -0.176000 -0.097102 0.000000
v -0.144000 -0.097102 0.000000
v -0.112000 -0.097102 0.000000
v -0.080000 -0.097102 0.000000
v -0.048000 -0.097102 0.000000
v -0.016000 -0.097102 0.000000
v 0.016000 -0.097102 0.000000
v 0.048000 -0.097102 0.000000
v 0.080000 -0.097102 0.000000
v 0.112000 -0.097102 0.000000
v 0.144000 -0.097102 0.000000
v 0.176000 -0.097102 0.000000
v 0.208000 -0.097102 0.000000
v 0.240000 -0.097102 0.000000
v 0.272000 -0.097102 0.000000
v 0.332921 -0.099158 0.000000
v -0.335184 -0.067318 0.000000
v -0.272000 -0.065102 0.000000
v -0.240000 -0.065102 0.000000
v -0.208000 -0.065102 0.000000
v -0.176000 -0.065102 0.000000
v -0.144000 -0.065102 0.000000
v -0.112000 -0.065102 0.000000
v -0.080000 -0.065102 0.000000
v -0.048000 -0.065102 0.000000
v -0.016000 -0.065102 0.000000
v 0.016000 -0.065102 0.000000
v 0.048000 -0.065102 0.000000
v 0.080000 -0.065102 0.000000
v 0.112000 -0.065102 0.000000
v 0.144000 -0.065102 0.000000
v 0.176000 -0.065102 0.000000
v 0.208000 -0.065102 0.000000
v 0.240000 -0.065102 0.000000
v 0.272000 -0.065102 0.000000
v 0.335184 -0.067318 0.000000
v -0.337876 -0.033280 0.000000
v -0.304000 -0.033102 0.000000
v -0.272000 -0.033102 0.000000
v -0.240000 -0.033102 0.000000
v -0.208000 -0.033102 0.000000
v -0.176000 -0.033102 0.000000
v -0.144000 -0.033102 0.000000
v -0.112000 -0.033102 0.000000
v -0.080000 -0.033102 0.000000
v -0.048000 -0.033102 0.000000
v -0.016000 -0.033102 0.000000
v 0.016000 -0.033102 0.000000
v 0.048000 -0.033102 0.000000
v 0.080000 -0.033102 0.000000
v 0.112000 -0.033102 0.000000
v 0.144000 -0.033102 0.000000
v 0.176000 -0.033102 0.000000
v 0.208000 -0.033102 0.000000
v 0.240000 -0.033102 0.000000
v 0.272000 -0.033102 0.000000
v 0.304000 -0.033102 0.000000
v 0.337876 -0.033280 0.000000
v -0.340888 -0.001566 0.000000
v -0.304000 -0.001102 0.000000
v -0.272000 -0.001102 0.000000
v -0.240000 -0.001102 0.000000
v -0.208000 -0.001102 0.000000
v -0.176000 -0.001102 0.000000
v -0.144000 -0.001102 0.000000
v -0.112000 -0.001102 0.000000
v -0.080000 -0.001102 0.000000
v -0.048000 -0.001102 0.000000
v -0.016000 -0.001102 0.000000
v 0.016000 -0.001102 0.000000
v 0.048000 -0.001102 0.000000
v 0.080000 -0.001102 0.000000
v 0.112000 -0.001102 0.000000
v 0.144000 -0.001102 0.000000
v 0.176000 -0.001102 0.000000
v 0.208000 -0.001102 0.000000
v 0.240000 -0.001102 0.000000
v 0.272000 -0.001102 0.000000
v 0.304000 -0.001102 0.000000
v 0.340888 -0.001566 0.000000
v -0.344806 0.029724 0.000000
v -0.304000 0.030898 0.000000
v -0.272000 0.030898 0.000000
v -0.240000 0.030898 0.000000
v -0.208000 0.030898 0.000000
v -0.176000 0.030898 0.000000
v -0.144000 0.030898 0.000000
v -0.112000 0.030898 0.000000
v -0.080000 0.030898 0.000000
v -0.048000 0.030898 0.000000
v -0.016000 0.030898 0.000000
v 0.016000 0.030898 0.000000
v 0.048000 0.030898 0.000000
v 0.080000 0.030898 0.000000
v 0.112000 0.030898 0.000000
v 0.144000 0.030898 0.000000
v 0.176000 0.030898 0.000000
v 0.208000 0.030898 0.000000
v 0.240000 0.030898 0.000000
v 0.272000 0.030898 0.000000
v 0.304000 0.030898 0.000000
v 0.344806 0.029724 0.000000
v -0.350627 0.058216 0.000000
v -0.304000 0.062898 0.000000
v -0.272000 0.062898 0.000000
v -0.240000 0.062898 0.000000
v -0.208000 0.062898 0.000000
v -0.176000 0.062898 0.000000
v -0.144000 0.062898 0.000000
v -0.112000 0.062898 0.000000
v -0.080000 0.062898 0.000000
v -0.048000 0.062898 0.000000
v -0.016000 0.062898 0.000000
v 0.016000 0.062898 0.000000
v 0.048000 0.062898 0.000000
v 0.080000 0.062898 0.000000
v 0.112000 0.062898 0.000000
v 0.144000 0.062898 0.000000
v 0.176000 0.062898 0.000000
v 0.208000 0.062898 0.000000
v 0.240000 0.062898 0.000000
v 0.272000 0.062898 0.000000
v 0.304000 0.062898 0.000000
v 0.350627 0.058216 0.000000
v -0.401143 0.093111 0.000000
v -0.378424 0.078590 0.000000
v -0.336000 0.094898 0.000000
v -0.304000 0.094898 0.000000
v -0.272000 0.094898 0.000000
v -0.240000 0.094898 0.000000
v -0.208000 0.094898 0.000000
v -0.176000 0.094898 0.000000
v -0.144000 0.094898 0.000000
v -0.112000 0.094898 0.000000
v -0.080000 0.094898 0.000000
v -0.048000 0.094898 0.000000
v -0.016000 0.094898 0.000000
v 0.016000 0.094898 0.000000
v 0.048000 0.094898 0.000000
v 0.080000 0.094898 0.000000
v 0.112000 0.094898 0.000000
v 0.144000 0.094898 0.000000
v 0.176000 0.094898 0.000000
v 0.208000 0.094898 0.000000
v 0.240000 0.094898 0.000000
v 0.272000 0.094898 0.000000
v 0.304000 0.094898 0.000000
v 0.336000 0.094898 0.000000
v 0.378424 0.078590 0.000000
v 0.401143 0.093111 0.000000
v -0.438754 0.114869 0.000000
v -0.400000 0.126898 0.000000
v -0.368000 0.126898 0.000000
v -0.336000 0.126898 0.000000
v -0.304000 0.126898 0.000000
v -0.272000 0.126898 0.000000
v -0.240000 0.126898 0.000000
v -0.208000 0.126898 0.000000
v -0.176000 0.126898 0.000000
v -0.144000 0.126898 0.000000
v -0.112000 0.126898 0.000000
v -0.080000 0.126898 0.000000
v -0.048000 0.126898 0.000000
v -0.016000 0.126898 0.000000
v 0.016000 0.126898 0.000000
v 0.048000 0.126898 0.000000
v 0.080000 0.126898 0.000000
v 0.112000 0.126898 0.000000
v 0.144000 0.126898 0.000000
v 0.176000 0.126898 0.000000
v 0.208000 0.126898 0.000000
v 0.240000 0.126898 0.000000
v 0.272000 0.126898 0.000000
v 0.304000 0.126898 0.000000
v 0.336000 0.126898 0.000000
v 0.368000 0.126898 0.000000
v 0.400000 0.126898 0.000000
v 0.438754 0.114869 0.000000
v -0.528996 0.155971 0.000000
v -0.501829 0.144974 0.000000
v -0.476330 0.133758 0.000000
v -0.432000 0.158898 0.000000
v -0.400000 0.158898 0.000000
v -0.368000 0.158898 0.000000
v -0.336000 0.158898 0.000000
v -0.304000 0.158898 0.000000
v -0.272000 0.158898 0.000000
v -0.240000 0.158898 0.000000
v -0.208000 0.158898 0.000000
v -0.176000 0.158898 0.000000
v -0.144000 0.158898 0.000000
v -0.112000 0.158898 0.000000
v -0.080000 0.158898 0.000000
v -0.048000 0.158898 0.000000
v -0.009936 0.161678 0.000000
v 0.009936 0.161678 0.000000
v 0.048000 0.158898 0.000000
v 0.080000 0.158898 0.000000
v 0.112000 0.158898 0.000000
v 0.144000 0.158898 0.000000
v 0.176000 0.158898 0.000000
v 0.208000 0.158898 0.000000
v 0.240000 0.158898 0.000000
v 0.272000 0.158898 0.000000
v 0.304000 0.158898 0.000000
v 0.336000 0.158898 0.000000
v 0.368000 0.158898 0.000000
v 0.400000 0.158898 0.000000
v 0.432000 0.158898 0.000000
v 0.476330 0.133758 0.000000
v 0.501829 0.144974 0.000000
v 0.528996 0.155971 0.000000
v -0.598584 0.184438 0.000000
v -0.565449 0.168331 0.000000
v -0.528000 0.190898 0.000000
v -0.496000 0.190898 0.000000
v -0.464000 0.190898 0.000000
v -0.432000 0.190898 0.000000
v -0.400000 0.190898 0.000000
v -0.368000 0.190898 0.000000
v -0.336000 0.190898 0.000000
v -0.304000 0.190898 0.000000
v -0.272000 0.190898 0.000000
v -0.240000 0.190898 0.000000
v -0.208000 0.190898 0.000000
v -0.176000 0.190898 0.000000
v -0.144000 0.190898 0.000000
v -0.112000 0.190898 0.000000
v -0.080000 0.190898 0.000000
v -0.027611 0.200243 0.000000
v 0.027611 0.200243 0.000000
v 0.080000 0.190898 0.000000
v 0.112000 0.190898 0.000000
v 0.144000 0.190898 0.000000
v 0.176000 0.190898 0.000000
v 0.208000 0.190898 0.000000
v 0.240000 0.190898 0.000000
v 0.272000 0.190898 0.000000
v 0.304000 0.190898 0.000000
v 0.336000 0.190898 0.000000
v 0.368000 0.190898 0.000000
v 0.400000 0.190898 0.000000
v 0.432000 0.190898 0.000000
v 0.464000 0.190898 0.000000
v 0.496000 0.190898 0.000000
v 0.528000 0.190898 0.000000
v 0.565449 0.168331 0.000000
v 0.598584 0.184438 0.000000
v -0.616176 0.216646 0.000000
v -0.560000 0.222898 0.000000
v -0.528000 0.222898 0.000000
v -0.496000 0.222898 0.000000
v -0.464000 0.222898 0.000000
v -0.432000 0.222898 0.000000
v -0.400000 0.222898 0.000000
v -0.368000 0.222898 0.000000
v -0.336000 0.222898 0.000000
v -0.304000 0.222898 0.000000
v -0.272000 0.222898 0.000000
v -0.240000 0.222898 0.000000
v -0.208000 0.222898 0.000000
v -0.176000 0.222898 0.000000
v -0.144000 0.222898 0.000000
v -0.112000 0.222898 0.000000
v -0.080000 0.222898 0.000000
v -0.039732 0.226688 0.000000
v 0.039732 0.226688 0.000000
v 0.080000 0.222898 0.000000
v 0.112000 0.222898 0.000000
v 0.144000 0.222898 0.000000
v 0.176000 0.222898 0.000000
v 0.208000 0.222898 0.000000
v 0.240000 0.222898 0.000000
v 0.272000 0.222898 0.000000
v 0.304000 0.222898 0.000000
v 0.336000 0.222898 0.000000
v 0.368000 0.222898 0.000000
v 0.400000 0.222898 0.000000
v 0.432000 0.222898 0.000000
v 0.464000 0.222898 0.000000
v 0.496000 0.222898 0.000000
v 0.528000 0.222898 0.000000
v 0.560000 0.222898 0.000000
v 0.616176 0.216646 0.000000
v -0.608017 0.263869 0.000000
v -0.560000 0.254898 0.000000
v -0.528000 0.254898 0.000000
v -0.496000 0.254898 0.000000
v -0.464000 0.254898 0.000000
v -0.432000 0.254898 0.000000
v -0.400000 0.254898 0.000000
v -0.368000 0.254898 0.000000
v -0.336000 0.254898 0.000000
v -0.304000 0.254898 0.000000
v -0.272000 0.254898 0.000000
v -0.240000 0.254898 0.000000
v -0.208000 0.254898 0.000000
v -0.176000 0.254898 0.000000
v -0.144000 0.254898 0.000000
v -0.112000 0.254898 0.000000
v -0.057408 0.265253 0.000000
v 0.057408 0.265253 0.000000
v 0.112000 0.254898 0.000000
v 0.144000 0.254898 0.000000
v 0.176000 0.254898 0.000000
v 0.208000 0.254898 0.000000
v 0.240000 0.254898 0.000000
v 0.272000 0.254898 0.000000
v 0.304000 0.254898 0.000000
v 0.336000 0.254898 0.000000
v 0.368000 0.254898 0.000000
v 0.400000 0.254898 0.000000
v 0.432000 0.254898 0.000000
v 0.464000 0.254898 0.000000
v 0.496000 0.254898 0.000000
v 0.528000 0.254898 0.000000
v 0.560000 0.254898 0.000000
v 0.608017 0.263869 0.000000
v -0.564882 0.291932 0.000000
v -0.528000 0.286898 0.000000
v -0.496000 0.286898 0.000000
v -0.464000 0.286898 0.000000
v -0.432000 0.286898 0.000000
v -0.400000 0.286898 0.000000
v -0.368000 0.286898 0.000000
v -0.336000 0.286898 0.000000
v -0.304000 0.286898 0.000000
v -0.272000 0.286898 0.000000
v -0.240000 0.286898 0.000000
v -0.208000 0.286898 0.000000
v -0.176000 0.286898 0.000000
v -0.144000 0.286898 0.000000
v -0.112000 0.286898 0.000000
v -0.069528 0.291698 0.000000
v 0.069528 0.291698 0.000000
v 0.112000 0.286898 0.000000
v 0.144000 0.286898 0.000000
v 0.176000 0.286898 0.000000
v 0.208000 0.286898 0.000000
v 0.240000 0.286898 0.000000
v 0.272000 0.286898 0.000000
v 0.304000 0.286898 0.000000
v 0.336000 0.286898 0.000000
v 0.368000 0.286898 0.000000
v 0.400000 0.286898 0.000000
v 0.432000 0.286898 0.000000
v 0.464000 0.286898 0.000000
v 0.496000 0.286898 0.000000
v 0.528000 0.286898 0.000000
v 0.564882 0.291932 0.000000
v -0.530148 0.324128 0.000000
v -0.502768 0.335375 0.000000
v -0.473594 0.346787 0.000000
v -0.432000 0.318898 0.000000
v -0.400000 0.318898 0.000000
v -0.368000 0.318898 0.000000
v -0.336000 0.318898 0.000000
v -0.304000 0.318898 0.000000
v -0.272000 0.318898 0.000000
v -0.240000 0.318898 0.000000
v -0.208000 0.318898 0.000000
v -0.176000 0.318898 0.000000
v -0.144000 0.318898 0.000000
v -0.087204 0.330263 0.000000
v 0.087204 0.330263 0.000000
v 0.144000 0.318898 0.000000
v 0.176000 0.318898 0.000000
v 0.208000 0.318898 0.000000
v 0.240000 0.318898 0.000000
v 0.272000 0.318898 0.000000
v 0.304000 0.318898 0.000000
v 0.336000 0.318898 0.000000
v 0.368000 0.318898 0.000000
v 0.400000 0.318898 0.000000
v 0.432000 0.318898 0.000000
v 0.473594 0.346787 0.000000
v 0.502768 0.335375 0.000000
v 0.530148 0.324128 0.000000
v -0.435137 0.360016 0.000000
v -0.405055 0.368848 0.000000
v -0.373823 0.377526 0.000000
v -0.336000 0.350898 0.000000
v -0.304000 0.350898 0.000000
v -0.272000 0.350898 0.000000
v -0.240000 0.350898 0.000000
v -0.208000 0.350898 0.000000
v -0.176000 0.350898 0.000000
v -0.144000 0.350898 0.000000
v -0.099324 0.356708 0.000000
v 0.099324 0.356708 0.000000
v 0.144000 0.350898 0.000000
v 0.176000 0.350898 0.000000
v 0.208000 0.350898 0.000000
v 0.240000 0.350898 0.000000
v 0.272000 0.350898 0.000000
v 0.304000 0.350898 0.000000
v 0.336000 0.350898 0.000000
v 0.373823 0.377526 0.000000
v 0.405055 0.368848 0.000000
v 0.435137 0.360016 0.000000
v -0.336605 0.385665 0.000000
v -0.305270 0.391342 0.000000
v -0.273979 0.396050 0.000000
v -0.241110 0.398601 0.000000
v -0.207498 0.399424 0.000000
v -0.173491 0.397614 0.000000
v -0.142395 0.392311 0.000000
v 0.142395 0.392311 0.000000
v 0.173491 0.397614 0.000000
v 0.207498 0.399424 0.000000
v 0.241110 0.398601 0.000000
v 0.273979 0.396050 0.000000
v 0.305270 0.391342 0.000000
v 0.336605 0.385665 0.000000
vt 0.356323 0.183271
vt 0.381623 0.179162
vt 0.408217 0.176585
vt 0.434983 0.175014
vt 0.460949 0.174822
vt 0.487053 0.174836
vt 0.513020 0.174905
vt 0.538986 0.174974
vt 0.564953 0.175044
vt 0.591783 0.176585
vt 0.618377 0.179162
vt 0.643677 0.183271
vt 0.276793 0.211522
vt 0.298744 0.200909
vt 0.324590 0.191315
vt 0.357184 0.214536
vt 0.383150 0.214536
vt 0.409117 0.214536
vt 0.435083 0.214536
vt 0.461050 0.214536
vt 0.487017 0.214536
vt 0.512983 0.214536
vt 0.538950 0.214536
vt 0.564917 0.214536
vt 0.590883 0.214536
vt 0.616850 0.214536
vt 0.642816 0.214536
vt 0.675410 0.191315
vt 0.701256 0.200909
vt 0.723207 0.211522
vt 0.248246 0.237468
vt 0.279284 0.240502
vt 0.305250 0.240502
vt 0.331217 0.240502
vt 0.357184 0.240502
vt 0.383150 0.240502
vt 0.409117 0.240502
vt 0.435083 0.240502
vt 0.461050 0.240502
vt 0.487017 0.240502
vt 0.512983 0.240502
vt 0.538950 0.240502
vt 0.564917 0.240502
vt 0.590883 0.240502
vt 0.616850 0.240502
vt 0.642816 0.240502
vt 0.668783 0.240502
vt 0.694750 0.240502
vt 0.720716 0.240502
vt 0.751754 0.237468
vt 0.234190 0.266490
vt 0.279284 0.266469
vt 0.305250 0.266469
vt 0.331217 0.266469
vt 0.357184 0.266469
vt 0.383150 0.266469
vt 0.409117 0.266469
vt 0.435083 0.266469
vt 0.461050 0.266469
vt 0.487017 0.266469
vt 0.512983 0.266469
vt 0.538950 0.266469
vt 0.564917 0.266469
vt 0.590883 0.266469
vt 0.616850 0.266469
vt 0.642816 0.266469
vt 0.668783 0.266469
vt 0.694750 0.266469
vt 0.720716 0.266469
vt 0.765810 0.266490
vt 0.234219 0.292457
vt 0.279284 0.292436
vt 0.305250 0.292436
vt 0.331217 0.292436
vt 0.357184 0.292436
vt 0.383150 0.292436
vt 0.409117 0.292436
vt 0.435083 0.292436
vt 0.461050 0.292436
vt 0.487017 0.292436
vt 0.512983 0.292436
vt 0.538950 0.292436
vt 0.564917 0.292436
vt 0.590883 0.292436
vt 0.616850 0.292436
vt 0.642816 0.292436
vt 0.668783 0.292436
vt 0.694750 0.292436
vt 0.720716 0.292436
vt 0.765781 0.292457
vt 0.234055 0.317866
vt 0.279284 0.318402
vt 0.305250 0.318402
vt 0.331217 0.318402
vt 0.357184 0.318402
vt 0.383150 0.318402
vt 0.409117 0.318402
vt 0.435083 0.318402
vt 0.461050 0.318402
vt 0.487017 0.318402
vt 0.512983 0.318402
vt 0.538950 0.318402
vt 0.564917 0.318402
vt 0.590883 0.318402
vt 0.616850 0.318402
vt 0.642816 0.318402
vt 0.668783 0.318402
vt 0.694750 0.318402
vt 0.720716 0.318402
vt 0.765945 0.317866
vt 0.233333 0.343813
vt 0.279284 0.344369
vt 0.305250 0.344369
vt 0.331217 0.344369
vt 0.357184 0.344369
vt 0.383150 0.344369
vt 0.409117 0.344369
vt 0.435083 0.344369
vt 0.461050 0.344369
vt 0.487017 0.344369
vt 0.512983 0.344369
vt 0.538950 0.344369
vt 0.564917 0.344369
vt 0.590883 0.344369
vt 0.616850 0.344369
vt 0.642816 0.344369
vt 0.668783 0.344369
vt 0.694750 0.344369
vt 0.720716 0.344369
vt 0.766667 0.343813
vt 0.232513 0.369288
vt 0.279284 0.370335
vt 0.305250 0.370335
vt 0.331217 0.370335
vt 0.357184 0.370335
vt 0.383150 0.370335
vt 0.409117 0.370335
vt 0.435083 0.370335
vt 0.461050 0.370335
vt 0.487017 0.370335
vt 0.512983 0.370335
vt 0.538950 0.370335
vt 0.564917 0.370335
vt 0.590883 0.370335
vt 0.616850 0.370335
vt 0.642816 0.370335
vt 0.668783 0.370335
vt 0.694750 0.370335
vt 0.720716 0.370335
vt 0.767487 0.369288
vt 0.231209 0.395189
vt 0.279284 0.396302
vt 0.305250 0.396302
vt 0.331217 0.396302
vt 0.357184 0.396302
vt 0.383150 0.396302
vt 0.409117 0.396302
vt 0.435083 0.396302
vt 0.461050 0.396302
vt 0.487017 0.396302
vt 0.512983 0.396302
vt 0.538950 0.396302
vt 0.564917 0.396302
vt 0.590883 0.396302
vt 0.616850 0.396302
vt 0.642816 0.396302
vt 0.668783 0.396302
vt 0.694750 0.396302
vt 0.720716 0.396302
vt 0.768791 0.395189
vt 0.229849 0.420600
vt 0.279284 0.422269
vt 0.305250 0.422269
vt 0.331217 0.422269
vt 0.357184 0.422269
vt 0.383150 0.422269
vt 0.409117 0.422269
vt 0.435083 0.422269
vt 0.461050 0.422269
vt 0.487017 0.422269
vt 0.512983 0.422269
vt 0.538950 0.422269
vt 0.564917 0.422269
vt 0.590883 0.422269
vt 0.616850 0.422269
vt 0.642816 0.422269
vt 0.668783 0.422269
vt 0.694750 0.422269
vt 0.720716 0.422269
vt 0.770151 0.420600
vt 0.228013 0.446437
vt 0.279284 0.448235
vt 0.305250 0.448235
vt 0.331217 0.448235
vt 0.357184 0.448235
vt 0.383150 0.448235
vt 0.409117 0.448235
vt 0.435083 0.448235
vt 0.461050 0.448235
vt 0.487017 0.448235
vt 0.512983 0.448235
vt 0.538950 0.448235
vt 0.564917 0.448235
vt 0.590883 0.448235
vt 0.616850 0.448235
vt 0.642816 0.448235
vt 0.668783 0.448235
vt 0.694750 0.448235
vt 0.720716 0.448235
vt 0.771987 0.446437
vt 0.225828 0.474057
vt 0.253317 0.474202
vt 0.279284 0.474202
vt 0.305250 0.474202
vt 0.331217 0.474202
vt 0.357184 0.474202
vt 0.383150 0.474202
vt 0.409117 0.474202
vt 0.435083 0.474202
vt 0.461050 0.474202
vt 0.487017 0.474202
vt 0.512983 0.474202
vt 0.538950 0.474202
vt 0.564917 0.474202
vt 0.590883 0.474202
vt 0.616850 0.474202
vt 0.642816 0.474202
vt 0.668783 0.474202
vt 0.694750 0.474202
vt 0.720716 0.474202
vt 0.746683 0.474202
vt 0.774172 0.474057
vt 0.223384 0.499792
vt 0.253317 0.500169
vt 0.279284 0.500169
vt 0.305250 0.500169
vt 0.331217 0.500169
vt 0.357184 0.500169
vt 0.383150 0.500169
vt 0.409117 0.500169
vt 0.435083 0.500169
vt 0.461050 0.500169
vt 0.487017 0.500169
vt 0.512983 0.500169
vt 0.538950 0.500169
vt 0.564917 0.500169
vt 0.590883 0.500169
vt 0.616850 0.500169
vt 0.642816 0.500169
vt 0.668783 0.500169
vt 0.694750 0.500169
vt 0.720716 0.500169
vt 0.746683 0.500169
vt 0.776616 0.499792
vt 0.220205 0.525183
vt 0.253317 0.526135
vt 0.279284 0.526135
vt 0.305250 0.526135
vt 0.331217 0.526135
vt 0.357184 0.526135
vt 0.383150 0.526135
vt 0.409117 0.526135
vt 0.435083 0.526135
vt 0.461050 0.526135
vt 0.487017 0.526135
vt 0.512983 0.526135
vt 0.538950 0.526135
vt 0.564917 0.526135
vt 0.590883 0.526135
vt 0.616850 0.526135
vt 0.642816 0.526135
vt 0.668783 0.526135
vt 0.694750 0.526135
vt 0.720716 0.526135
vt 0.746683 0.526135
vt 0.779795 0.525183
vt 0.215481 0.548303
vt 0.253317 0.552102
vt 0.279284 0.552102
vt 0.305250 0.552102
vt 0.331217 0.552102
vt 0.357184 0.552102
vt 0.383150 0.552102
vt 0.409117 0.552102
vt 0.435083 0.552102
vt 0.461050 0.552102
vt 0.487017 0.552102
vt 0.512983 0.552102
vt 0.538950 0.552102
vt 0.564917 0.552102
vt 0.590883 0.552102
vt 0.616850 0.552102
vt 0.642816 0.552102
vt 0.668783 0.552102
vt 0.694750 0.552102
vt 0.720716 0.552102
vt 0.746683 0.552102
vt 0.784519 0.548303
vt 0.174490 0.576618
vt 0.192925 0.564835
vt 0.227350 0.578068
vt 0.253317 0.578068
vt 0.279284 0.578068
vt 0.305250 0.578068
vt 0.331217 0.578068
vt 0.357184 0.578068
vt 0.383150 0.578068
vt 0.409117 0.578068
vt 0.435083 0.578068
vt 0.461050 0.578068
vt 0.487017 0.578068
vt 0.512983 0.578068
vt 0.538950 0.578068
vt 0.564917 0.578068
vt 0.590883 0.578068
vt 0.616850 0.578068
vt 0.642816 0.578068
vt 0.668783 0.578068
vt 0.694750 0.578068
vt 0.720716 0.578068
vt 0.746683 0.578068
vt 0.772650 0.578068
vt 0.807075 0.564835
vt 0.825510 0.576618
vt 0.143970 0.594274
vt 0.175417 0.604035
vt 0.201384 0.604035
vt 0.227350 0.604035
vt 0.253317 0.604035
vt 0.279284 0.604035
vt 0.305250 0.604035
vt 0.331217 0.604035
vt 0.357184 0.604035
vt 0.383150 0.604035
vt 0.409117 0.604035
vt 0.435083 0.604035
vt 0.461050 0.604035
vt 0.487017 0.604035
vt 0.512983 0.604035
vt 0.538950 0.604035
vt 0.564917 0.604035
vt 0.590883 0.604035
vt 0.616850 0.604035
vt 0.642816 0.604035
vt 0.668783 0.604035
vt 0.694750 0.604035
vt 0.720716 0.604035
vt 0.746683 0.604035
vt 0.772650 0.604035
vt 0.798616 0.604035
vt 0.824583 0.604035
vt 0.856030 0.594274
vt 0.070743 0.627626
vt 0.092788 0.618703
vt 0.113479 0.609601
vt 0.149451 0.630002
vt 0.175417 0.630002
vt 0.201384 0.630002
vt 0.227350 0.630002
vt 0.253317 0.630002
vt 0.279284 0.630002
vt 0.305250 0.630002
vt 0.331217 0.630002
vt 0.357184 0.630002
vt 0.383150 0.630002
vt 0.409117 0.630002
vt 0.435083 0.630002
vt 0.461050 0.630002
vt 0.491938 0.632257
vt 0.508062 0.632257
vt 0.538950 0.630002
vt 0.564917 0.630002
vt 0.590883 0.630002
vt 0.616850 0.630002
vt 0.642816 0.630002
vt 0.668783 0.630002
vt 0.694750 0.630002
vt 0.720716 0.630002
vt 0.746683 0.630002
vt 0.772650 0.630002
vt 0.798616 0.630002
vt 0.824583 0.630002
vt 0.850549 0.630002
vt 0.886521 0.609601
vt 0.907212 0.618703
vt 0.929257 0.627626
vt 0.014275 0.650726
vt 0.041163 0.637656
vt 0.071551 0.655968
vt 0.097517 0.655968
vt 0.123484 0.655968
vt 0.149451 0.655968
vt 0.175417 0.655968
vt 0.201384 0.655968
vt 0.227350 0.655968
vt 0.253317 0.655968
vt 0.279284 0.655968
vt 0.305250 0.655968
vt 0.331217 0.655968
vt 0.357184 0.655968
vt 0.383150 0.655968
vt 0.409117 0.655968
vt 0.435083 0.655968
vt 0.477595 0.663551
vt 0.522405 0.663551
vt 0.564917 0.655968
vt 0.590883 0.655968
vt 0.616850 0.655968
vt 0.642816 0.655968
vt 0.668783 0.655968
vt 0.694750 0.655968
vt 0.720716 0.655968
vt 0.746683 0.655968
vt 0.772650 0.655968
vt 0.798616 0.655968
vt 0.824583 0.655968
vt 0.850549 0.655968
vt 0.876516 0.655968
vt 0.902483 0.655968
vt 0.928449 0.655968
vt 0.958837 0.637656
vt 0.985725 0.650726
vt 0.000000 0.676861
vt 0.045584 0.681935
vt 0.071551 0.681935
vt 0.097517 0.681935
vt 0.123484 0.681935
vt 0.149451 0.681935
vt 0.175417 0.681935
vt 0.201384 0.681935
vt 0.227350 0.681935
vt 0.253317 0.681935
vt 0.279284 0.681935
vt 0.305250 0.681935
vt 0.331217 0.681935
vt 0.357184 0.681935
vt 0.383150 0.681935
vt 0.409117 0.681935
vt 0.435083 0.681935
vt 0.467759 0.685010
vt 0.532241 0.685010
vt 0.564917 0.681935
vt 0.590883 0.681935
vt 0.616850 0.681935
vt 0.642816 0.681935
vt 0.668783 0.681935
vt 0.694750 0.681935
vt 0.720716 0.681935
vt 0.746683 0.681935
vt 0.772650 0.681935
vt 0.798616 0.681935
vt 0.824583 0.681935
vt 0.850549 0.681935
vt 0.876516 0.681935
vt 0.902483 0.681935
vt 0.928449 0.681935
vt 0.954416 0.681935
vt 1.000000 0.676861
vt 0.006620 0.715181
vt 0.045584 0.707902
vt 0.071551 0.707902
vt 0.097517 0.707902
vt 0.123484 0.707902
vt 0.149451 0.707902
vt 0.175417 0.707902
vt 0.201384 0.707902
vt 0.227350 0.707902
vt 0.253317 0.707902
vt 0.279284 0.707902
vt 0.305250 0.707902
vt 0.331217 0.707902
vt 0.357184 0.707902
vt 0.383150 0.707902
vt 0.409117 0.707902
vt 0.453416 0.716304
vt 0.546584 0.716304
vt 0.590883 0.707902
vt 0.616850 0.707902
vt 0.642816 0.707902
vt 0.668783 0.707902
vt 0.694750 0.707902
vt 0.720716 0.707902
vt 0.746683 0.707902
vt 0.772650 0.707902
vt 0.798616 0.707902
vt 0.824583 0.707902
vt 0.850549 0.707902
vt 0.876516 0.707902
vt 0.902483 0.707902
vt 0.928449 0.707902
vt 0.954416 0.707902
vt 0.993380 0.715181
vt 0.041622 0.737953
vt 0.071551 0.733868
vt 0.097517 0.733868
vt 0.123484 0.733868
vt 0.149451 0.733868
vt 0.175417 0.733868
vt 0.201384 0.733868
vt 0.227350 0.733868
vt 0.253317 0.733868
vt 0.279284 0.733868
vt 0.305250 0.733868
vt 0.331217 0.733868
vt 0.357184 0.733868
vt 0.383150 0.733868
vt 0.409117 0.733868
vt 0.443581 0.737763
vt 0.556419 0.737763
vt 0.590883 0.733868
vt 0.616850 0.733868
vt 0.642816 0.733868
vt 0.668783 0.733868
vt 0.694750 0.733868
vt 0.720716 0.733868
vt 0.746683 0.733868
vt 0.772650 0.733868
vt 0.798616 0.733868
vt 0.824583 0.733868
vt 0.850549 0.733868
vt 0.876516 0.733868
vt 0.902483 0.733868
vt 0.928449 0.733868
vt 0.958378 0.737953
vt 0.069808 0.764078
vt 0.092025 0.773205
vt 0.115699 0.782465
vt 0.149451 0.759835
vt 0.175417 0.759835
vt 0.201384 0.759835
vt 0.227350 0.759835
vt 0.253317 0.759835
vt 0.279284 0.759835
vt 0.305250 0.759835
vt 0.331217 0.759835
vt 0.357184 0.759835
vt 0.383150 0.759835
vt 0.429238 0.769057
vt 0.570762 0.769057
vt 0.616850 0.759835
vt 0.642816 0.759835
vt 0.668783 0.759835
vt 0.694750 0.759835
vt 0.720716 0.759835
vt 0.746683 0.759835
vt 0.772650 0.759835
vt 0.798616 0.759835
vt 0.824583 0.759835
vt 0.850549 0.759835
vt 0.884301 0.782465
vt 0.907975 0.773205
vt 0.930192 0.764078
vt 0.146905 0.793200
vt 0.171316 0.800367
vt 0.196658 0.807409
vt 0.227350 0.785801
vt 0.253317 0.785801
vt 0.279284 0.785801
vt 0.305250 0.785801
vt 0.331217 0.785801
vt 0.357184 0.785801
vt 0.383150 0.785801
vt 0.419402 0.790516
vt 0.580598 0.790516
vt 0.616850 0.785801
vt 0.642816 0.785801
vt 0.668783 0.785801
vt 0.694750 0.785801
vt 0.720716 0.785801
vt 0.746683 0.785801
vt 0.772650 0.785801
vt 0.803342 0.807409
vt 0.828684 0.800367
vt 0.853095 0.793200
vt 0.226859 0.814013
vt 0.252286 0.818620
vt 0.277678 0.822440
vt 0.304350 0.824510
vt 0.331624 0.825178
vt 0.359220 0.823709
vt 0.384453 0.819406
vt 0.615547 0.819406
vt 0.640780 0.823709
vt 0.668376 0.825178
vt 0.695650 0.824510
vt 0.722322 0.822440
vt 0.747714 0.818620
vt 0.773141 0.814013
f 1/1 16/16 15/15
f 1/1 2/2 17/17
f 1/1 17/17 16/16
f 2/2 3/3 18/18
f 2/2 18/18 17/17
f 3/3 4/4 19/19
f 3/3 19/19 18/18
f 4/4 5/5 20/20
f 4/4 20/20 19/19
f 5/5 6/6 21/21
f 5/5 21/21 20/20
f 6/6 7/7 22/22
f 6/6 22/22 21/21
f 7/7 8/8 23/23
f 7/7 23/23 22/22
f 8/8 9/9 24/24
f 8/8 24/24 23/23
f 9/9 10/10 25/25
f 9/9 25/25 24/24
f 10/10 11/11 26/26
f 10/10 26/26 25/25
f 11/11 12/12 27/27
f 11/11 27/27 26/26
f 12/12 28/28 27/27
f 13/13 32/32 31/31
f 13/13 14/14 33/33
f 13/13 33/33 32/32
f 14/14 15/15 34/34
f 14/14 34/34 33/33
f 15/15 16/16 35/35
f 15/15 35/35 34/34
f 16/16 17/17 36/36
f 16/16 36/36 35/35
f 17/17 18/18 37/37
f 17/17 37/37 36/36
f 18/18 19/19 38/38
f 18/18 38/38 37/37
f 19/19 20/20 39/39
f 19/19 39/39 38/38
f 20/20 21/21 40/40
f 20/20 40/40 39/39
f 21/21 22/22 41/41
f 21/21 41/41 40/40
f 22/22 23/23 42/42
f 22/22 42/42 41/41
f 23/23 24/24 43/43
f 23/23 43/43 42/42
f 24/24 25/25 44/44
f 24/24 44/44 43/43
f 25/25 26/26 45/45
f 25/25 45/45 44/44
f 26/26 27/27 46/46
f 26/26 46/46 45/45
f 27/27 28/28 47/47
f 27/27 47/47 46/46
f 28/28 29/29 48/48
f 28/28 48/48 47/47
f 29/29 30/30 49/49
f 29/29 49/49 48/48
f 30/30 50/50 49/49
f 31/31 32/32 52/52
f 31/31 52/52 51/51
f 32/32 33/33 53/53
f 32/32 53/53 52/52
f 33/33 34/34 54/54
f 33/33 54/54 53/53
f 34/34 35/35 55/55
f 34/34 55/55 54/54
f 35/35 36/36 56/56
f 35/35 56/56 55/55
f 36/36 37/37 57/57
f 36/36 57/57 56/56
f 37/37 38/38 58/58
f 37/37 58/58 57/57
f 38/38 39/39 59/59
f 38/38 59/59 58/58
f 39/39 40/40 60/60
f 39/39 60/60 59/59
f 40/40 41/41 61/61
f 40/40 61/61 60/60
f 41/41 42/42 62/62
f 41/41 62/62 61/61
f 42/42 43/43 63/63
f 42/42 63/63 62/62
f 43/43 44/44 64/64
f 43/43 64/64 63/63
f 44/44 45/45 65/65
f 44/44 65/65 64/64
f 45/45 46/46 66/66
f 45/45 66/66 65/65
f 46/46 47/47 67/67
f 46/46 67/67 66/66
f 47/47 48/48 68/68
f 47/47 68/68 67/67
f 48/48 49/49 69/69
f 48/48 69/69 68/68
f 49/49 50/50 70/70
f 49/49 70/70 69/69
f 51/51 52/52 72/72
f 51/51 72/72 71/71
f 52/52 53/53 73/73
f 52/52 73/73 72/72
f 53/53 54/54 74/74
f 53/53 74/74 73/73
f 54/54 55/55 75/75
f 54/54 75/75 74/74
f 55/55 56/56 76/76
f 55/55 76/76 75/75
f 56/56 57/57 77/77
f 56/56 77/77 76/76
f 57/57 58/58 78/78
f 57/57 78/78 77/77
f 58/58 59/59 79/79
f 58/58 79/79 78/78
f 59/59 60/60 80/80
f 59/59 80/80 79/79
f 60/60 61/61 81/81
f 60/60 81/81 80/80
f 61/61 62/62 82/82
f 61/61 82/82 81/81
f 62/62 63/63 83/83
f 62/62 83/83 82/82
f 63/63 64/64 84/84
f 63/63 84/84 83/83
f 64/64 65/65 85/85
f 64/64 85/85 84/84
f 65/65 66/66 86/86
f 65/65 86/86 85/85
f 66/66 67/67 87/87
f 66/66 87/87 86/86
f 67/67 68/68 88/88
f 67/67 88/88 87/87
f 68/68 69/69 89/89
f 68/68 89/89 88/88
f 69/69 70/70 90/90
f 69/69 90/90 89/89
f 71/71 72/72 92/92
f 71/71 92/92 91/91
f 72/72 73/73 93/93
f 72/72 93/93 92/92
f 73/73 74/74 94/94
f 73/73 94/94 93/93
f 74/74 75/75 95/95
f 74/74 95/95 94/94
f 75/75 76/76 96/96
f 75/75 96/96 95/95
f 76/76 77/77 97/97
f 76/76 97/97 96/96
f 77/77 78/78 98/98
f 77/77 98/98 97/97
f 78/78 79/79 99/99
f 78/78 99/99 98/98
f 79/79 80/80 100/100
f 79/79 100/100 99/99
f 80/80 81/81 101/101
f 80/80 101/101 100/100
f 81/81 82/82 102/102
f 81/81 102/102 101/101
f 82/82 83/83 103/103
f 82/82 103/103 102/102
f 83/83 84/84 104/104
f 83/83 104/104 103/103
f 84/84 85/85 105/105
f 84/84 105/105 104/104
f 85/85 86/86 106/106
f 85/85 106/106 105/105
f 86/86 87/87 107/107
f 86/86 107/107 106/106
f 87/87 88/88 108/108
f 87/87 108/108 107/107
f 88/88 89/89 109/109
f 88/88 109/109 108/108
f 89/89 90/90 110/110
f 89/89 110/110 109/109
f 91/91 92/92 112/112
f 91/91 112/112 111/111
f 92/92 93/93 113/113
f 92/92 113/113 112/112
f 93/93 94/94 114/114
f 93/93 114/114 113/113
f 94/94 95/95 115/115
f 94/94 115/115 114/114
f 95/95 96/96 116/116
f 95/95 116/116 115/115
f 96/96 97/97 117/117
f 96/96 117/117 116/116
f 97/97 98/98 118/118
f 97/97 118/118 117/117
f 98/98 99/99 119/119
f 98/98 119/119 118/118
f 99/99 100/100 120/120
f 99/99 120/120 119/119
f 100/100 101/101 121/121
f 100/100 121/121 120/120
f 101/101 102/102 122/122
f 101/101 122/122 121/121
f 102/102 103/103 123/123
f 102/102 123/123 122/122
f 103/103 104/104 124/124
f 103/103 124/124 123/123
f 104/104 105/105 125/125
f 104/104 125/125 124/124
f 105/105 106/106 126/126
f 105/105 126/126 125/125
f 106/106 107/107 127/127
f 106/106 127/127 126/126
f 107/107 108/108 128/128
f 107/107 128/128 127/127
f 108/108 109/109 129/129
f 108/108 129/129 128/128
f 109/109 110/110 130/130
f 109/109 130/130 129/129
f 111/111 112/112 132/132
f 111/111 132/132 131/131
f 112/112 113/113 133/133
f 112/112 133/133 132/132
f 113/113 114/114 134/134
f 113/113 134/134 133/133
f 114/114 115/115 135/135
f 114/114 135/135 134/134
f 115/115 116/116 136/136
f 115/115 136/136 135/135
f 116/116 117/117 137/137
f 116/116 137/137 136/136
f 117/117 118/118 138/138
f 117/117 138/138 137/137
f 118/118 119/119 139/139
f 118/118 139/139 138/138
f 119/119 120/120 140/140
f 119/119 140/140 139/139
f 120/120 121/121 141/141
f 120/120 141/141 140/140
f 121/121 122/122 142/142
f 121/121 142/142 141/141
f 122/122 123/123 143/143
f 122/122 143/143 142/142
f 123/123 124/124 144/144
f 123/123 144/144 143/143
f 124/124 125/125 145/145
f 124/124 145/145 144/144
f 125/125 126/126 146/146
f 125/125 146/146 145/145
f 126/126 127/127 147/147
f 126/126 147/147 146/146
f 127/127 128/128 148/148
f 127/127 148/148 147/147
f 128/128 129/129 149/149
f 128/128 149/149 148/148
f 129/129 130/130 150/150
f 129/129 150/150 149/149
f 131/131 132/132 152/152
f 131/131 152/152 151/151
f 132/132 133/133 153/153
f 132/132 153/153 152/152
f 133/133 134/134 154/154
f 133/133 154/154 153/153
f 134/134 135/135 155/155
f 134/134 155/155 154/154
f 135/135 136/136 156/156
f 135/135 156/156 155/155
f 136/136 137/137 157/157
f 136/136 157/157 156/156
f 137/137 138/138 158/158
f 137/137 158/158 157/157
f 138/138 139/139 159/159
f 138/138 159/159 158/158
f 139/139 140/140 160/160
f 139/139 160/160 159/159
f 140/140 141/141 161/161
f 140/140 161/161 160/160
f 141/141 142/142 162/162
f 141/141 162/162 161/161
f 142/142 143/143 163/163
f 142/142 163/163 162/162
f 143/143 144/144 164/164
f 143/143 164/164 163/163
f 144/144 145/145 165/165
f 144/144 165/165 164/164
f 145/145 146/146 166/166
f 145/145 166/166 165/165
f 146/146 147/147 167/167
f 146/146 167/167 166/166
f 147/147 148/148 168/168
f 147/147 168/168 167/167
f 148/148 149/149 169/169
f 148/148 169/169 168/168
f 149/149 150/150 170/170
f 149/149 170/170 169/169
f 151/151 152/152 172/172
f 151/151 172/172 171/171
f 152/152 153/153 173/173
f 152/152 173/173 172/172
f 153/153 154/154 174/174
f 153/153 174/174 173/173
f 154/154 155/155 175/175
f 154/154 175/175 174/174
f 155/155 156/156 176/176
f 155/155 176/176 175/175
f 156/156 157/157 177/177
f 156/156 177/177 176/176
f 157/157 158/158 178/178
f 157/157 178/178 177/177
f 158/158 159/159 179/179
f 158/158 179/179 178/178
f 159/159 160/160 180/180
f 159/159 180/180 179/179
f 160/160 161/161 181/181
f 160/160 181/181 180/180
f 161/161 162/162 182/182
f 161/161 182/182 181/181
f 162/162 163/163 183/183
f 162/162 183/183 182/182
f 163/163 164/164 184/184
f 163/163 184/184 183/183
f 164/164 165/165 185/185
f 164/164 185/185 184/184
f 165/165 166/166 186/186
f 165/165 186/186 185/185
f 166/166 167/167 187/187
f 166/166 187/187 186/186
f 167/167 168/168 188/188
f 167/167 188/188 187/187
f 168/168 169/169 189/189
f 168/168 189/189 188/188
f 169/169 170/170 190/190
f 169/169 190/190 189/189
f 171/171 172/172 192/192
f 171/171 192/192 191/191
f 172/172 173/173 193/193
f 172/172 193/193 192/192
f 173/173 174/174 194/194
f 173/173 194/194 193/193
f 174/174 175/175 195/195
f 174/174 195/195 194/194
f 175/175 176/176 196/196
f 175/175 196/196 195/195
f 176/176 177/177 197/197
f 176/176 197/197 196/196
f 177/177 178/178 198/198
f 177/177 198/198 197/197
f 178/178 179/179 199/199
f 178/178 199/199 198/198
f 179/179 180/180 200/200
f 179/179 200/200 199/199
f 180/180 181/181 201/201
f 180/180 201/201 200/200
f 181/181 182/182 202/202
f 181/181 202/202 201/201
f 182/182 183/183 203/203
f 182/182 203/203 202/202
f 183/183 184/184 204/204
f 183/183 204/204 203/203
f 184/184 185/185 205/205
f 184/184 205/205 204/204
f 185/185 186/186 206/206
f 185/185 206/206 205/205
f 186/186 187/187 207/207
f 186/186 207/207 206/206
f 187/187 188/188 208/208
f 187/187 208/208 207/207
f 188/188 189/189 209/209
f 188/188 209/209 208/208
f 189/189 190/190 210/210
f 189/189 210/210 209/209
f 191/191 212/212 211/211
f 191/191 192/192 213/213
f 191/191 213/213 212/212
f 192/192 193/193 214/214
f 192/192 214/214 213/213
f 193/193 194/194 215/215
f 193/193 215/215 214/214
f 194/194 195/195 216/216
f 194/194 216/216 215/215
f 195/195 196/196 217/217
f 195/195 217/217 216/216
f 196/196 197/197 218/218
f 196/196 218/218 217/217
f 197/197 198/198 219/219
f 197/197 219/219 218/218
f 198/198 199/199 220/220
f 198/198 220/220 219/219
f 199/199 200/200 221/221
f 199/199 221/221 220/220
f 200/200 201/201 222/222
f 200/200 222/222 221/221
f 201/201 202/202 223/223
f 201/201 223/223 222/222
f 202/202 203/203 224/224
f 202/202 224/224 223/223
f 203/203 204/204 225/225
f 203/203 225/225 224/224
f 204/204 205/205 226/226
f 204/204 226/226 225/225
f 205/205 206/206 227/227
f 205/205 227/227 226/226
f 206/206 207/207 228/228
f 206/206 228/228 227/227
f 207/207 208/208 229/229
f 207/207 229/229 228/228
f 208/208 209/209 230/230
f 208/208 230/230 229/229
f 209/209 210/210 231/231
f 209/209 231/231 230/230
f 210/210 232/232 231/231
f 211/211 212/212 234/234
f 211/211 234/234 233/233
f 212/212 213/213 235/235
f 212/212 235/235 234/234
f 213/213 214/214 236/236
f 213/213 236/236 235/235
f 214/214 215/215 237/237
f 214/214 237/237 236/236
f 215/215 216/216 238/238
f 215/215 238/238 237/237
f 216/216 217/217 239/239
f 216/216 239/239 238/238
f 217/217 218/218 240/240
f 217/217 240/240 239/239
f 218/218 219/219 241/241
f 218/218 241/241 240/240
f 219/219 220/220 242/242
f 219/219 242/242 241/241
f 220/220 221/221 243/243
f 220/220 243/243 242/242
f 221/221 222/222 244/244
f 221/221 244/244 243/243
f 222/222 223/223 245/245
f 222/222 245/245 244/244
f 223/223 224/224 246/246
f 223/223 246/246 245/245
f 224/224 225/225 247/247
f 224/224 247/247 246/246
f 225/225 226/226 248/248
f 225/225 248/248 247/247
f 226/226 227/227 249/249
f 226/226 249/249 248/248
f 227/227 228/228 250/250
f 227/227 250/250 249/249
f 228/228 229/229 251/251
f 228/228 251/251 250/250
f 229/229 230/230 252/252
f 229/229 252/252 251/251
f 230/230 231/231 253/253
f 230/230 253/253 252/252
f 231/231 232/232 254/254
f 231/231 254/254 253/253
f 233/233 234/234 256/256
f 233/233 256/256 255/255
f 234/234 235/235 257/257
f 234/234 257/257 256/256
f 235/235 236/236 258/258
f 235/235 258/258 257/257
f 236/236 237/237 259/259
f 236/236 259/259 258/258
f 237/237 238/238 260/260
f 237/237 260/260 259/259
f 238/238 239/239 261/261
f 238/238 261/261 260/260
f 239/239 240/240 262/262
f 239/239 262/262 261/261
f 240/240 241/241 263/263
f 240/240 263/263 262/262
f 241/241 242/242 264/264
f 241/241 264/264 263/263
f 242/242 243/243 265/265
f 242/242 265/265 264/264
f 243/243 244/244 266/266
f 243/243 266/266 265/265
f 244/244 245/245 267/267
f 244/244 267/267 266/266
f 245/245 246/246 268/268
f 245/245 268/268 267/267
f 246/246 247/247 269/269
f 246/246 269/269 268/268
f 247/247 248/248 270/270
f 247/247 270/270 269/269
f 248/248 249/249 271/271
f 248/248 271/271 270/270
f 249/249 250/250 272/272
f 249/249 272/272 271/271
f 250/250 251/251 273/273
f 250/250 273/273 272/272
f 251/251 252/252 274/274
f 251/251 274/274 273/273
f 252/252 253/253 275/275
f 252/252 275/275 274/274
f 253/253 254/254 276/276
f 253/253 276/276 275/275
f 255/255 256/256 278/278
f 255/255 278/278 277/277
f 256/256 257/257 279/279
f 256/256 279/279 278/278
f 257/257 258/258 280/280
f 257/257 280/280 279/279
f 258/258 259/259 281/281
f 258/258 281/281 280/280
f 259/259 260/260 282/282
f 259/259 282/282 281/281
f 260/260 261/261 283/283
f 260/260 283/283 282/282
f 261/261 262/262 284/284
f 261/261 284/284 283/283
f 262/262 263/263 285/285
f 262/262 285/285 284/284
f 263/263 264/264 286/286
f 263/263 286/286 285/285
f 264/264 265/265 287/287
f 264/264 287/287 286/286
f 265/265 266/266 288/288
f 265/265 288/288 287/287
f 266/266 267/267 289/289
f 266/266 289/289 288/288
f 267/267 268/268 290/290
f 267/267 290/290 289/289
f 268/268 269/269 291/291
f 268/268 291/291 290/290
f 269/269 270/270 292/292
f 269/269 292/292 291/291
f 270/270 271/271 293/293
f 270/270 293/293 292/292
f 271/271 272/272 294/294
f 271/271 294/294 293/293
f 272/272 273/273 295/295
f 272/272 295/295 294/294
f 273/273 274/274 296/296
f 273/273 296/296 295/295
f 274/274 275/275 297/297
f 274/274 297/297 296/296
f 275/275 276/276 298/298
f 275/275 298/298 297/297
f 277/277 301/301 300/300
f 277/277 278/278 302/302
f 277/277 302/302 301/301
f 278/278 279/279 303/303
f 278/278 303/303 302/302
f 279/279 280/280 304/304
f 279/279 304/304 303/303
f 280/280 281/281 305/305
f 280/280 305/305 304/304
f 281/281 282/282 306/306
f 281/281 306/306 305/305
f 282/282 283/283 307/307
f 282/282 307/307 306/306
f 283/283 284/284 308/308
f 283/283 308/308 307/307
f 284/284 285/285 309/309
f 284/284 309/309 308/308
f 285/285 286/286 310/310
f 285/285 310/310 309/309
f 286/286 287/287 311/311
f 286/286 311/311 310/310
f 287/287 288/288 312/312
f 287/287 312/312 311/311
f 288/288 289/289 313/313
f 288/288 313/313 312/312
f 289/289 290/290 314/314
f 289/289 314/314 313/313
f 290/290 291/291 315/315
f 290/290 315/315 314/314
f 291/291 292/292 316/316
f 291/291 316/316 315/315
f 292/292 293/293 317/317
f 292/292 317/317 316/316
f 293/293 294/294 318/318
f 293/293 318/318 317/317
f 294/294 295/295 319/319
f 294/294 319/319 318/318
f 295/295 296/296 320/320
f 295/295 320/320 319/319
f 296/296 297/297 321/321
f 296/296 321/321 320/320
f 297/297 298/298 322/322
f 297/297 322/322 321/321
f 298/298 323/323 322/322
f 299/299 326/326 325/325
f 299/299 300/300 327/327
f 299/299 327/327 326/326
f 300/300 301/301 328/328
f 300/300 328/328 327/327
f 301/301 302/302 329/329
f 301/301 329/329 328/328
f 302/302 303/303 330/330
f 302/302 330/330 329/329
f 303/303 304/304 331/331
f 303/303 331/331 330/330
f 304/304 305/305 332/332
f 304/304 332/332 331/331
f 305/305 306/306 333/333
f 305/305 333/333 332/332
f 306/306 307/307 334/334
f 306/306 334/334 333/333
f 307/307 308/308 335/335
f 307/307 335/335 334/334
f 308/308 309/309 336/336
f 308/308 336/336 335/335
f 309/309 310/310 337/337
f 309/309 337/337 336/336
f 310/310 311/311 338/338
f 310/310 338/338 337/337
f 311/311 312/312 339/339
f 311/311 339/339 338/338
f 312/312 313/313 340/340
f 312/312 340/340 339/339
f 313/313 314/314 341/341
f 313/313 341/341 340/340
f 314/314 315/315 342/342
f 314/314 342/342 341/341
f 315/315 316/316 343/343
f 315/315 343/343 342/342
f 316/316 317/317 344/344
f 316/316 344/344 343/343
f 317/317 318/318 345/345
f 317/317 345/345 344/344
f 318/318 319/319 346/346
f 318/318 346/346 345/345
f 319/319 320/320 347/347
f 319/319 347/347 346/346
f 320/320 321/321 348/348
f 320/320 348/348 347/347
f 321/321 322/322 349/349
f 321/321 349/349 348/348
f 322/322 323/323 350/350
f 322/322 350/350 349/349
f 323/323 324/324 351/351
f 323/323 351/351 350/350
f 324/324 352/352 351/351
f 325/325 356/356 355/355
f 325/325 326/326 357/357
f 325/325 357/357 356/356
f 326/326 327/327 358/358
f 326/326 358/358 357/357
f 327/327 328/328 359/359
f 327/327 359/359 358/358
f 328/328 329/329 360/360
f 328/328 360/360 359/359
f 329/329 330/330 361/361
f 329/329 361/361 360/360
f 330/330 331/331 362/362
f 330/330 362/362 361/361
f 331/331 332/332 363/363
f 331/331 363/363 362/362
f 332/332 333/333 364/364
f 332/332 364/364 363/363
f 333/333 334/334 365/365
f 333/333 365/365 364/364
f 334/334 335/335 366/366
f 334/334 366/366 365/365
f 335/335 336/336 367/367
f 335/335 367/367 366/366
f 336/336 337/337 368/368
f 336/336 368/368 367/367
f 337/337 338/338 369/369
f 337/337 369/369 368/368
f 338/338 339/339 370/370
f 338/338 370/370 369/369
f 339/339 340/340 371/371
f 339/339 371/371 370/370
f 340/340 341/341 372/372
f 340/340 372/372 371/371
f 341/341 342/342 373/373
f 341/341 373/373 372/372
f 342/342 343/343 374/374
f 342/342 374/374 373/373
f 343/343 344/344 375/375
f 343/343 375/375 374/374
f 344/344 345/345 376/376
f 344/344 376/376 375/375
f 345/345 346/346 377/377
f 345/345 377/377 376/376
f 346/346 347/347 378/378
f 346/346 378/378 377/377
f 347/347 348/348 379/379
f 347/347 379/379 378/378
f 348/348 349/349 380/380
f 348/348 380/380 379/379
f 349/349 350/350 381/381
f 349/349 381/381 380/380
f 350/350 351/351 382/382
f 350/350 382/382 381/381
f 351/351 352/352 383/383
f 351/351 383/383 382/382
f 352/352 384/384 383/383
f 353/353 389/389 388/388
f 353/353 354/354 390/390
f 353/353 390/390 389/389
f 354/354 355/355 391/391
f 354/354 391/391 390/390
f 355/355 356/356 392/392
f 355/355 392/392 391/391
f 356/356 357/357 393/393
f 356/356 393/393 392/392
f 357/357 358/358 394/394
f 357/357 394/394 393/393
f 358/358 359/359 395/395
f 358/358 395/395 394/394
f 359/359 360/360 396/396
f 359/359 396/396 395/395
f 360/360 361/361 397/397
f 360/360 397/397 396/396
f 361/361 362/362 398/398
f 361/361 398/398 397/397
f 362/362 363/363 399/399
f 362/362 399/399 398/398
f 363/363 364/364 400/400
f 363/363 400/400 399/399
f 364/364 365/365 401/401
f 364/364 401/401 400/400
f 365/365 366/366 402/402
f 365/365 402/402 401/401
f 366/366 367/367 403/403
f 366/366 403/403 402/402
f 367/367 368/368 404/404
f 367/367 404/404 403/403
f 368/368 369/369 404/404
f 370/370 371/371 405/405
f 371/371 372/372 406/406
f 371/371 406/406 405/405
f 372/372 373/373 407/407
f 372/372 407/407 406/406
f 373/373 374/374 408/408
f 373/373 408/408 407/407
f 374/374 375/375 409/409
f 374/374 409/409 408/408
f 375/375 376/376 410/410
f 375/375 410/410 409/409
f 376/376 377/377 411/411
f 376/376 411/411 410/410
f 377/377 378/378 412/412
f 377/377 412/412 411/411
f 378/378 379/379 413/413
f 378/378 413/413 412/412
f 379/379 380/380 414/414
f 379/379 414/414 413/413
f 380/380 381/381 415/415
f 380/380 415/415 414/414
f 381/381 382/382 416/416
f 381/381 416/416 415/415
f 382/382 383/383 417/417
f 382/382 417/417 416/416
f 383/383 384/384 418/418
f 383/383 418/418 417/417
f 384/384 385/385 419/419
f 384/384 419/419 418/418
f 385/385 386/386 420/420
f 385/385 420/420 419/419
f 386/386 421/421 420/420
f 387/387 388/388 424/424
f 387/387 424/424 423/423
f 388/388 389/389 425/425
f 388/388 425/425 424/424
f 389/389 390/390 426/426
f 389/389 426/426 425/425
f 390/390 391/391 427/427
f 390/390 427/427 426/426
f 391/391 392/392 428/428
f 391/391 428/428 427/427
f 392/392 393/393 429/429
f 392/392 429/429 428/428
f 393/393 394/394 430/430
f 393/393 430/430 429/429
f 394/394 395/395 431/431
f 394/394 431/431 430/430
f 395/395 396/396 432/432
f 395/395 432/432 431/431
f 396/396 397/397 433/433
f 396/396 433/433 432/432
f 397/397 398/398 434/434
f 397/397 434/434 433/433
f 398/398 399/399 435/435
f 398/398 435/435 434/434
f 399/399 400/400 436/436
f 399/399 436/436 435/435
f 400/400 401/401 437/437
f 400/400 437/437 436/436
f 401/401 402/402 438/438
f 401/401 438/438 437/437
f 402/402 403/403 439/439
f 402/402 439/439 438/438
f 403/403 404/404 440/440
f 403/403 440/440 439/439
f 405/405 406/406 442/442
f 405/405 442/442 441/441
f 406/406 407/407 443/443
f 406/406 443/443 442/442
f 407/407 408/408 444/444
f 407/407 444/444 443/443
f 408/408 409/409 445/445
f 408/408 445/445 444/444
f 409/409 410/410 446/446
f 409/409 446/446 445/445
f 410/410 411/411 447/447
f 410/410 447/447 446/446
f 411/411 412/412 448/448
f 411/411 448/448 447/447
f 412/412 413/413 449/449
f 412/412 449/449 448/448
f 413/413 414/414 450/450
f 413/413 450/450 449/449
f 414/414 415/415 451/451
f 414/414 451/451 450/450
f 415/415 416/416 452/452
f 415/415 452/452 451/451
f 416/416 417/417 453/453
f 416/416 453/453 452/452
f 417/417 418/418 454/454
f 417/417 454/454 453/453
f 418/418 419/419 455/455
f 418/418 455/455 454/454
f 419/419 420/420 456/456
f 419/419 456/456 455/455
f 420/420 421/421 457/457
f 420/420 457/457 456/456
f 421/421 422/422 458/458
f 421/421 458/458 457/457
f 423/423 424/424 460/460
f 423/423 460/460 459/459
f 424/424 425/425 461/461
f 424/424 461/461 460/460
f 425/425 426/426 462/462
f 425/425 462/462 461/461
f 426/426 427/427 463/463
f 426/426 463/463 462/462
f 427/427 428/428 464/464
f 427/427 464/464 463/463
f 428/428 429/429 465/465
f 428/428 465/465 464/464
f 429/429 430/430 466/466
f 429/429 466/466 465/465
f 430/430 431/431 467/467
f 430/430 467/467 466/466
f 431/431 432/432 468/468
f 431/431 468/468 467/467
f 432/432 433/433 469/469
f 432/432 469/469 468/468
f 433/433 434/434 470/470
f 433/433 470/470 469/469
f 434/434 435/435 471/471
f 434/434 471/471 470/470
f 435/435 436/436 472/472
f 435/435 472/472 471/471
f 436/436 437/437 473/473
f 436/436 473/473 472/472
f 437/437 438/438 474/474
f 437/437 474/474 473/473
f 438/438 439/439 475/475
f 438/438 475/475 474/474
f 439/439 440/440 475/475
f 441/441 442/442 476/476
f 442/442 443/443 477/477
f 442/442 477/477 476/476
f 443/443 444/444 478/478
f 443/443 478/478 477/477
f 444/444 445/445 479/479
f 444/444 479/479 478/478
f 445/445 446/446 480/480
f 445/445 480/480 479/479
f 446/446 447/447 481/481
f 446/446 481/481 480/480
f 447/447 448/448 482/482
f 447/447 482/482 481/481
f 448/448 449/449 483/483
f 448/448 483/483 482/482
f 449/449 450/450 484/484
f 449/449 484/484 483/483
f 450/450 451/451 485/485
f 450/450 485/485 484/484
f 451/451 452/452 486/486
f 451/451 486/486 485/485
f 452/452 453/453 487/487
f 452/452 487/487 486/486
f 453/453 454/454 488/488
f 453/453 488/488 487/487
f 454/454 455/455 489/489
f 454/454 489/489 488/488
f 455/455 456/456 490/490
f 455/455 490/490 489/489
f 456/456 457/457 491/491
f 456/456 491/491 490/490
f 457/457 458/458 492/492
f 457/457 492/492 491/491
f 459/459 460/460 493/493
f 460/460 461/461 494/494
f 460/460 494/494 493/493
f 461/461 462/462 495/495
f 461/461 495/495 494/494
f 462/462 463/463 496/496
f 462/462 496/496 495/495
f 463/463 464/464 497/497
f 463/463 497/497 496/496
f 464/464 465/465 498/498
f 464/464 498/498 497/497
f 465/465 466/466 499/499
f 465/465 499/499 498/498
f 466/466 467/467 500/500
f 466/466 500/500 499/499
f 467/467 468/468 501/501
f 467/467 501/501 500/500
f 468/468 469/469 502/502
f 468/468 502/502 501/501
f 469/469 470/470 503/503
f 469/469 503/503 502/502
f 470/470 471/471 504/504
f 470/470 504/504 503/503
f 471/471 472/472 505/505
f 471/471 505/505 504/504
f 472/472 473/473 506/506
f 472/472 506/506 505/505
f 473/473 474/474 507/507
f 473/473 507/507 506/506
f 474/474 475/475 508/508
f 474/474 508/508 507/507
f 476/476 477/477 510/510
f 476/476 510/510 509/509
f 477/477 478/478 511/511
f 477/477 511/511 510/510
f 478/478 479/479 512/512
f 478/478 512/512 511/511
f 479/479 480/480 513/513
f 479/479 513/513 512/512
f 480/480 481/481 514/514
f 480/480 514/514 513/513
f 481/481 482/482 515/515
f 481/481 515/515 514/514
f 482/482 483/483 516/516
f 482/482 516/516 515/515
f 483/483 484/484 517/517
f 483/483 517/517 516/516
f 484/484 485/485 518/518
f 484/484 518/518 517/517
f 485/485 486/486 519/519
f 485/485 519/519 518/518
f 486/486 487/487 520/520
f 486/486 520/520 519/519
f 487/487 488/488 521/521
f 487/487 521/521 520/520
f 488/488 489/489 522/522
f 488/488 522/522 521/521
f 489/489 490/490 523/523
f 489/489 523/523 522/522
f 490/490 491/491 524/524
f 490/490 524/524 523/523
f 491/491 492/492 524/524
f 493/493 494/494 525/525
f 494/494 495/495 526/526
f 494/494 526/526 525/525
f 495/495 496/496 527/527
f 495/495 527/527 526/526
f 496/496 497/497 528/528
f 496/496 528/528 527/527
f 497/497 498/498 529/529
f 497/497 529/529 528/528
f 498/498 499/499 530/530
f 498/498 530/530 529/529
f 499/499 500/500 531/531
f 499/499 531/531 530/530
f 500/500 501/501 532/532
f 500/500 532/532 531/531
f 501/501 502/502 533/533
f 501/501 533/533 532/532
f 502/502 503/503 534/534
f 502/502 534/534 533/533
f 503/503 504/504 535/535
f 503/503 535/535 534/534
f 504/504 505/505 536/536
f 504/504 536/536 535/535
f 505/505 506/506 537/537
f 505/505 537/537 536/536
f 506/506 507/507 538/538
f 506/506 538/538 537/537
f 507/507 508/508 538/538
f 509/509 510/510 539/539
f 510/510 511/511 540/540
f 510/510 540/540 539/539
f 511/511 512/512 541/541
f 511/511 541/541 540/540
f 512/512 513/513 542/542
f 512/512 542/542 541/541
f 513/513 514/514 543/543
f 513/513 543/543 542/542
f 514/514 515/515 544/544
f 514/514 544/544 543/543
f 515/515 516/516 545/545
f 515/515 545/545 544/544
f 516/516 517/517 546/546
f 516/516 546/546 545/545
f 517/517 518/518 547/547
f 517/517 547/547 546/546
f 518/518 519/519 548/548
f 518/518 548/548 547/547
f 519/519 520/520 549/549
f 519/519 549/549 548/548
f 520/520 521/521 550/550
f 520/520 550/550 549/549
f 521/521 522/522 551/551
f 521/521 551/551 550/550
f 522/522 523/523 552/552
f 522/522 552/552 551/551
f 523/523 524/524 552/552
f 527/527 528/528 553/553
f 528/528 529/529 554/554
f 528/528 554/554 553/553
f 529/529 530/530 555/555
f 529/529 555/555 554/554
f 530/530 531/531 556/556
f 530/530 556/556 555/555
f 531/531 532/532 557/557
f 531/531 557/557 556/556
f 532/532 533/533 558/558
f 532/532 558/558 557/557
f 533/533 534/534 559/559
f 533/533 559/559 558/558
f 534/534 535/535 560/560
f 534/534 560/560 559/559
f 535/535 536/536 561/561
f 535/535 561/561 560/560
f 536/536 537/537 562/562
f 536/536 562/562 561/561
f 537/537 538/538 563/563
f 537/537 563/563 562/562
f 539/539 540/540 565/565
f 539/539 565/565 564/564
f 540/540 541/541 566/566
f 540/540 566/566 565/565
f 541/541 542/542 567/567
f 541/541 567/567 566/566
f 542/542 543/543 568/568
f 542/542 568/568 567/567
f 543/543 544/544 569/569
f 543/543 569/569 568/568
f 544/544 545/545 570/570
f 544/544 570/570 569/569
f 545/545 546/546 571/571
f 545/545 571/571 570/570
f 546/546 547/547 572/572
f 546/546 572/572 571/571
f 547/547 548/548 573/573
f 547/547 573/573 572/572
f 548/548 549/549 574/574
f 548/548 574/574 573/573
f 549/549 550/550 574/574
f 555/555 556/556 575/575
f 556/556 557/557 576/576
f 556/556 576/576 575/575
f 557/557 558/558 577/577
f 557/557 577/577 576/576
f 558/558 559/559 578/578
f 558/558 578/578 577/577
f 559/559 560/560 579/579
f 559/559 579/579 578/578
f 560/560 561/561 580/580
f 560/560 580/580 579/579
f 561/561 562/562 581/581
f 561/561 581/581 580/580
f 562/562 563/563 581/581
f 564/564 565/565 582/582
f 565/565 566/566 583/583
f 565/565 583/583 582/582
f 566/566 567/567 584/584
f 566/566 584/584 583/583
f 567/567 568/568 585/585
f 567/567 585/585 584/584
f 568/568 569/569 586/586
f 568/568 586/586 585/585
f 569/569 570/570 587/587
f 569/569 587/587 586/586
f 570/570 571/571 588/588
f 570/570 588/588 587/587
f 571/571 572/572 588/588
