# XFOLD single T panel (ninja fold)
# verts=741 faces=1364 loops=1
# body=0.60x0.64 crease_x=±0.100
v -0.192525 -0.326613 0.000000
v -0.166167 -0.330846 0.000000
v -0.139674 -0.334145 0.000000
v -0.113098 -0.336671 0.000000
v -0.086475 -0.338626 0.000000
v -0.059821 -0.340114 0.000000
v -0.033148 -0.341210 0.000000
v -0.006459 -0.341846 0.000000
v 0.020231 -0.341518 0.000000
v 0.046913 -0.340686 0.000000
v 0.073583 -0.339493 0.000000
v 0.100220 -0.337702 0.000000
v 0.126814 -0.335389 0.000000
v 0.153345 -0.332443 0.000000
v 0.179771 -0.328685 0.000000
v -0.279595 -0.280503 0.000000
v -0.268485 -0.302495 0.000000
v -0.244205 -0.313465 0.000000
v -0.218641 -0.321097 0.000000
v -0.181713 -0.303954 0.000000
v -0.160054 -0.305479 0.000000
v -0.135034 -0.307483 0.000000
v -0.109350 -0.309368 0.000000
v -0.083497 -0.310950 0.000000
v -0.057586 -0.312203 0.000000
v -0.031647 -0.313130 0.000000
v -0.005694 -0.313703 0.000000
v 0.020269 -0.313813 0.000000
v 0.046241 -0.313455 0.000000
v 0.072239 -0.312744 0.000000
v 0.098306 -0.311717 0.000000
v 0.124525 -0.310467 0.000000
v 0.151021 -0.309457 0.000000
v 0.177985 -0.310634 0.000000
v 0.206016 -0.323835 0.000000
v 0.231923 -0.317438 0.000000
v 0.257015 -0.308437 0.000000
v 0.278182 -0.293346 0.000000
v -0.282388 -0.253953 0.000000
v -0.258890 -0.266983 0.000000
v -0.236211 -0.278526 0.000000
v -0.210810 -0.285114 0.000000
v -0.182805 -0.284678 0.000000
v -0.155516 -0.281974 0.000000
v -0.130592 -0.282213 0.000000
v -0.105525 -0.283165 0.000000
v -0.080322 -0.284206 0.000000
v -0.055061 -0.285122 0.000000
v -0.029773 -0.285842 0.000000
v -0.004470 -0.286331 0.000000
v 0.020842 -0.286550 0.000000
v 0.046166 -0.286476 0.000000
v 0.071524 -0.286129 0.000000
v 0.096976 -0.285544 0.000000
v 0.122645 -0.284773 0.000000
v 0.148728 -0.284010 0.000000
v 0.175452 -0.283862 0.000000
v 0.202925 -0.285473 0.000000
v 0.230377 -0.284454 0.000000
v 0.256767 -0.277652 0.000000
v 0.281102 -0.266809 0.000000
v -0.284846 -0.227370 0.000000
v -0.256698 -0.238103 0.000000
v -0.230839 -0.247797 0.000000
v -0.205357 -0.254710 0.000000
v -0.179192 -0.257810 0.000000
v -0.152836 -0.258021 0.000000
v -0.127227 -0.257697 0.000000
v -0.102279 -0.257922 0.000000
v -0.077478 -0.258423 0.000000
v -0.052697 -0.258975 0.000000
v -0.027913 -0.259460 0.000000
v -0.003122 -0.259823 0.000000
v 0.021675 -0.260035 0.000000
v 0.046482 -0.260076 0.000000
v 0.071314 -0.259937 0.000000
v 0.096226 -0.259610 0.000000
v 0.121339 -0.259069 0.000000
v 0.146869 -0.258295 0.000000
v 0.173108 -0.257313 0.000000
v 0.200332 -0.256104 0.000000
v 0.228510 -0.253658 0.000000
v 0.256785 -0.248447 0.000000
v 0.283656 -0.240236 0.000000
v -0.287018 -0.200762 0.000000
v -0.256242 -0.211316 0.000000
v -0.228216 -0.220251 0.000000
v -0.201736 -0.226956 0.000000
v -0.175835 -0.231029 0.000000
v -0.150146 -0.232757 0.000000
v -0.124799 -0.233154 0.000000
v -0.099898 -0.233233 0.000000
v -0.075296 -0.233404 0.000000
v -0.050813 -0.233662 0.000000
v -0.026368 -0.233934 0.000000
v -0.001932 -0.234162 0.000000
v 0.022505 -0.234318 0.000000
v 0.046947 -0.234383 0.000000
v 0.071405 -0.234338 0.000000
v 0.095918 -0.234148 0.000000
v 0.120581 -0.233735 0.000000
v 0.145582 -0.232963 0.000000
v 0.171212 -0.231642 0.000000
v 0.197850 -0.229520 0.000000
v 0.225943 -0.226126 0.000000
v 0.256047 -0.220765 0.000000
v 0.285990 -0.213642 0.000000
v -0.289053 -0.174143 0.000000
v -0.255402 -0.185593 0.000000
v -0.226559 -0.194446 0.000000
v -0.199509 -0.200970 0.000000
v -0.173482 -0.205237 0.000000
v -0.148047 -0.207546 0.000000
v -0.123005 -0.208493 0.000000
v -0.098290 -0.208769 0.000000
v -0.073829 -0.208860 0.000000
v -0.049518 -0.208956 0.000000
v -0.025273 -0.209077 0.000000
v -0.001052 -0.209196 0.000000
v 0.023163 -0.209289 0.000000
v 0.047379 -0.209338 0.000000
v 0.071605 -0.209323 0.000000
v 0.095866 -0.209195 0.000000
v 0.120228 -0.208849 0.000000
v 0.144831 -0.208096 0.000000
v 0.169902 -0.206660 0.000000
v 0.195753 -0.204227 0.000000
v 0.222782 -0.200485 0.000000
v 0.251903 -0.195094 0.000000
v 0.288115 -0.187030 0.000000
v -0.290920 -0.147512 0.000000
v -0.268598 -0.150565 0.000000
v -0.250431 -0.161207 0.000000
v -0.224314 -0.169813 0.000000
v -0.197827 -0.176138 0.000000
v -0.171937 -0.180339 0.000000
v -0.146651 -0.182786 0.000000
v -0.121810 -0.183977 0.000000
v -0.097273 -0.184434 0.000000
v -0.072943 -0.184568 0.000000
v -0.048740 -0.184615 0.000000
v -0.024606 -0.184659 0.000000
v -0.000501 -0.184708 0.000000
v 0.023595 -0.184752 0.000000
v 0.047689 -0.184778 0.000000
v 0.071789 -0.184763 0.000000
v 0.095915 -0.184655 0.000000
v 0.120112 -0.184336 0.000000
v 0.144476 -0.183590 0.000000
v 0.169167 -0.182104 0.000000
v 0.194387 -0.179533 0.000000
v 0.220295 -0.175639 0.000000
v 0.246826 -0.170448 0.000000
v 0.272961 -0.164504 0.000000
v 0.290017 -0.160401 0.000000
v -0.292616 -0.120869 0.000000
v -0.268101 -0.130059 0.000000
v -0.245035 -0.138254 0.000000
v -0.221381 -0.146095 0.000000
v -0.196170 -0.152071 0.000000
v -0.170806 -0.156076 0.000000
v -0.145765 -0.158458 0.000000
v -0.121090 -0.159692 0.000000
v -0.096686 -0.160227 0.000000
v -0.072457 -0.160412 0.000000
v -0.048329 -0.160462 0.000000
v -0.024255 -0.160480 0.000000
v -0.000206 -0.160496 0.000000
v 0.023832 -0.160512 0.000000
v 0.047869 -0.160520 0.000000
v 0.071912 -0.160498 0.000000
v 0.095978 -0.160392 0.000000
v 0.120102 -0.160074 0.000000
v 0.144358 -0.159313 0.000000
v 0.168861 -0.157769 0.000000
v 0.193745 -0.155072 0.000000
v 0.219080 -0.150978 0.000000
v 0.244685 -0.145568 0.000000
v 0.269728 -0.139426 0.000000
v 0.291817 -0.133765 0.000000
v -0.294221 -0.094221 0.000000
v -0.268448 -0.105684 0.000000
v -0.243622 -0.115157 0.000000
v -0.219264 -0.122736 0.000000
v -0.194698 -0.128410 0.000000
v -0.169891 -0.132186 0.000000
v -0.145170 -0.134425 0.000000
v -0.120670 -0.135600 0.000000
v -0.096374 -0.136134 0.000000
v -0.072215 -0.136337 0.000000
v -0.048135 -0.136398 0.000000
v -0.024095 -0.136412 0.000000
v -0.000073 -0.136417 0.000000
v 0.023942 -0.136421 0.000000
v 0.047956 -0.136420 0.000000
v 0.071977 -0.136393 0.000000
v 0.096022 -0.136283 0.000000
v 0.120128 -0.135957 0.000000
v 0.144357 -0.135166 0.000000
v 0.168806 -0.133544 0.000000
v 0.193580 -0.130690 0.000000
v 0.218731 -0.126328 0.000000
v 0.244143 -0.120520 0.000000
v 0.269359 -0.113798 0.000000
v 0.293469 -0.107120 0.000000
v -0.295680 -0.067564 0.000000
v -0.269211 -0.080306 0.000000
v -0.243497 -0.090958 0.000000
v -0.218454 -0.099077 0.000000
v -0.193777 -0.104777 0.000000
v -0.169221 -0.108430 0.000000
v -0.144753 -0.110537 0.000000
v -0.120415 -0.111623 0.000000
v -0.096211 -0.112118 0.000000
v -0.072104 -0.112311 0.000000
v -0.048054 -0.112374 0.000000
v -0.024032 -0.112390 0.000000
v -0.000022 -0.112392 0.000000
v 0.023984 -0.112393 0.000000
v 0.047990 -0.112388 0.000000
v 0.072005 -0.112360 0.000000
v 0.096049 -0.112251 0.000000
v 0.120162 -0.111921 0.000000
v 0.144411 -0.111104 0.000000
v 0.168885 -0.109399 0.000000
v 0.193677 -0.106360 0.000000
v 0.218842 -0.101676 0.000000
v 0.244324 -0.095386 0.000000
v 0.269863 -0.088008 0.000000
v 0.294974 -0.080466 0.000000
v -0.296997 -0.040900 0.000000
v -0.270108 -0.054596 0.000000
v -0.243867 -0.066159 0.000000
v -0.218345 -0.074930 0.000000
v -0.193409 -0.080924 0.000000
v -0.168843 -0.084621 0.000000
v -0.144485 -0.086672 0.000000
v -0.120256 -0.087690 0.000000
v -0.096122 -0.088138 0.000000
v -0.072053 -0.088311 0.000000
v -0.048022 -0.088368 0.000000
v -0.024010 -0.088383 0.000000
v -0.000006 -0.088386 0.000000
v 0.023997 -0.088386 0.000000
v 0.048001 -0.088381 0.000000
v 0.072015 -0.088356 0.000000
v 0.096065 -0.088255 0.000000
v 0.120199 -0.087939 0.000000
v 0.144495 -0.087124 0.000000
v 0.169046 -0.085368 0.000000
v 0.193934 -0.082155 0.000000
v 0.219200 -0.077110 0.000000
v 0.244822 -0.070264 0.000000
v 0.270654 -0.062171 0.000000
v 0.296382 -0.053806 0.000000
v -0.298193 -0.014230 0.000000
v -0.271032 -0.028801 0.000000
v -0.244432 -0.041113 0.000000
v -0.218560 -0.050465 0.000000
v -0.193377 -0.056823 0.000000
v -0.168705 -0.060677 0.000000
v -0.144349 -0.062755 0.000000
v -0.120165 -0.063748 0.000000
v -0.096073 -0.064166 0.000000
v -0.072029 -0.064320 0.000000
v -0.048010 -0.064369 0.000000
v -0.024003 -0.064382 0.000000
v -0.000001 -0.064384 0.000000
v 0.024000 -0.064384 0.000000
v 0.048003 -0.064381 0.000000
v 0.072018 -0.064361 0.000000
v 0.096072 -0.064278 0.000000
v 0.120229 -0.063999 0.000000
v 0.144589 -0.063242 0.000000
v 0.169269 -0.061525 0.000000
v 0.194337 -0.058229 0.000000
v 0.219775 -0.052843 0.000000
v 0.245525 -0.045341 0.000000
v 0.271537 -0.036392 0.000000
v 0.297652 -0.027140 0.000000
v -0.299223 0.012446 0.000000
v -0.272001 -0.003122 0.000000
v -0.245114 -0.016081 0.000000
v -0.218935 -0.025897 0.000000
v -0.193518 -0.032576 0.000000
v -0.168713 -0.036616 0.000000
v -0.144308 -0.038771 0.000000
v -0.120124 -0.039777 0.000000
v -0.096046 -0.040186 0.000000
v -0.072016 -0.040329 0.000000
v -0.048004 -0.040371 0.000000
v -0.024001 -0.040382 0.000000
v -0.000000 -0.040384 0.000000
v 0.024000 -0.040384 0.000000
v 0.048003 -0.040382 0.000000
v 0.072016 -0.040369 0.000000
v 0.096070 -0.040308 0.000000
v 0.120239 -0.040090 0.000000
v 0.144658 -0.039457 0.000000
v 0.169500 -0.037924 0.000000
v 0.194871 -0.034774 0.000000
v 0.220662 -0.029245 0.000000
v 0.246573 -0.021027 0.000000
v 0.272539 -0.010891 0.000000
v 0.298742 -0.000465 0.000000
v -0.299987 0.039132 0.000000
v -0.273203 0.022067 0.000000
v -0.246023 0.008602 0.000000
v -0.219465 -0.001461 0.000000
v -0.193770 -0.008327 0.000000
v -0.168803 -0.012503 0.000000
v -0.144322 -0.014738 0.000000
v -0.120113 -0.015776 0.000000
v -0.096033 -0.016190 0.000000
v -0.072006 -0.016330 0.000000
v -0.047999 -0.016370 0.000000
v -0.023998 -0.016380 0.000000
v 0.000002 -0.016382 0.000000
v 0.024001 -0.016383 0.000000
v 0.048002 -0.016383 0.000000
v 0.072012 -0.016376 0.000000
v 0.096058 -0.016338 0.000000
v 0.120218 -0.016190 0.000000
v 0.144654 -0.015728 0.000000
v 0.169622 -0.014528 0.000000
v 0.195371 -0.011867 0.000000
v 0.221869 -0.006748 0.000000
v 0.248410 0.001811 0.000000
v 0.274046 0.013703 0.000000
v 0.299638 0.026216 0.000000
v -0.300084 0.065825 0.000000
v -0.275421 0.045668 0.000000
v -0.247546 0.032284 0.000000
v -0.220293 0.022494 0.000000
v -0.194161 0.015744 0.000000
v -0.168960 0.011571 0.000000
v -0.144369 0.009307 0.000000
v -0.120115 0.008246 0.000000
v -0.096019 0.007823 0.000000
v -0.071989 0.007683 0.000000
v -0.047983 0.007644 0.000000
v -0.023986 0.007633 0.000000
v 0.000009 0.007627 0.000000
v 0.024005 0.007622 0.000000
v 0.048003 0.007619 0.000000
v 0.072008 0.007621 0.000000
v 0.096041 0.007640 0.000000
v 0.120169 0.007725 0.000000
v 0.144558 0.008011 0.000000
v 0.169522 0.008808 0.000000
v 0.195503 0.010699 0.000000
v 0.222856 0.014643 0.000000
v 0.251206 0.022102 0.000000
v 0.277913 0.035087 0.000000
v 0.300189 0.052906 0.000000
v -0.322298 0.071119 0.000000
v -0.282415 0.063382 0.000000
v -0.250529 0.053658 0.000000
v -0.221666 0.045445 0.000000
v -0.194770 0.039400 0.000000
v -0.169203 0.035501 0.000000
v -0.144445 0.033320 0.000000
v -0.120117 0.032277 0.000000
v -0.095989 0.031859 0.000000
v -0.071945 0.031723 0.000000
v -0.047937 0.031687 0.000000
v -0.023945 0.031674 0.000000
v 0.000039 0.031661 0.000000
v 0.024023 0.031645 0.000000
v 0.048012 0.031631 0.000000
v 0.072008 0.031624 0.000000
v 0.096025 0.031628 0.000000
v 0.120109 0.031668 0.000000
v 0.144400 0.031816 0.000000
v 0.169202 0.032254 0.000000
v 0.195053 0.033348 0.000000
v 0.222709 0.035721 0.000000
v 0.252927 0.040441 0.000000
v 0.285399 0.049866 0.000000
v 0.309422 0.071761 0.000000
v -0.464635 0.087897 0.000000
v -0.454819 0.063071 0.000000
v -0.444286 0.038541 0.000000
v -0.348150 0.064666 0.000000
v -0.292855 0.074087 0.000000
v -0.254864 0.071869 0.000000
v -0.223576 0.066956 0.000000
v -0.195609 0.062414 0.000000
v -0.169545 0.059171 0.000000
v -0.144557 0.057251 0.000000
v -0.120119 0.056305 0.000000
v -0.095929 0.055925 0.000000
v -0.071847 0.055812 0.000000
v -0.047820 0.055794 0.000000
v -0.023832 0.055788 0.000000
v 0.000131 0.055764 0.000000
v 0.024085 0.055723 0.000000
v 0.048046 0.055680 0.000000
v 0.072021 0.055649 0.000000
v 0.096018 0.055634 0.000000
v 0.120060 0.055643 0.000000
v 0.144239 0.055704 0.000000
v 0.168789 0.055902 0.000000
v 0.194192 0.056409 0.000000
v 0.221266 0.057491 0.000000
v 0.251289 0.059473 0.000000
v 0.286652 0.062711 0.000000
v 0.335782 0.068382 0.000000
v 0.436087 0.032234 0.000000
v 0.449803 0.051163 0.000000
v 0.459948 0.075857 0.000000
v -0.473930 0.112922 0.000000
v -0.451752 0.107796 0.000000
v -0.439811 0.091860 0.000000
v -0.428029 0.070368 0.000000
v -0.422731 0.035545 0.000000
v -0.397745 0.044925 0.000000
v -0.373102 0.055194 0.000000
v -0.324416 0.080771 0.000000
v -0.293951 0.086232 0.000000
v -0.257470 0.088668 0.000000
v -0.225187 0.087319 0.000000
v -0.196432 0.084767 0.000000
v -0.169924 0.082510 0.000000
v -0.144703 0.081043 0.000000
v -0.120130 0.080302 0.000000
v -0.095839 0.080023 0.000000
v -0.071670 0.079970 0.000000
v -0.047581 0.080002 0.000000
v -0.023571 0.080036 0.000000
v 0.000364 0.080018 0.000000
v 0.024256 0.079937 0.000000
v 0.048148 0.079829 0.000000
v 0.072071 0.079736 0.000000
v 0.096031 0.079678 0.000000
v 0.120035 0.079655 0.000000
v 0.144122 0.079670 0.000000
v 0.168435 0.079744 0.000000
v 0.193309 0.079935 0.000000
v 0.219368 0.080307 0.000000
v 0.247613 0.080817 0.000000
v 0.279523 0.080921 0.000000
v 0.317274 0.078135 0.000000
v 0.361103 0.059983 0.000000
v 0.385819 0.049897 0.000000
v 0.410543 0.039827 0.000000
v 0.429825 0.068093 0.000000
v 0.445959 0.076289 0.000000
v 0.460685 0.090624 0.000000
v 0.469511 0.100780 0.000000
v -0.482662 0.138150 0.000000
v -0.452158 0.128789 0.000000
v -0.429709 0.118236 0.000000
v -0.412056 0.104569 0.000000
v -0.396317 0.089053 0.000000
v -0.377318 0.081536 0.000000
v -0.352433 0.085361 0.000000
v -0.321159 0.094648 0.000000
v -0.287665 0.103234 0.000000
v -0.256105 0.106814 0.000000
v -0.225321 0.107605 0.000000
v -0.196760 0.106769 0.000000
v -0.170169 0.105543 0.000000
v -0.144852 0.104631 0.000000
v -0.120181 0.104208 0.000000
v -0.095758 0.104131 0.000000
v -0.071426 0.104200 0.000000
v -0.047180 0.104328 0.000000
v -0.023073 0.104473 0.000000
v 0.000862 0.104534 0.000000
v 0.024656 0.104431 0.000000
v 0.048405 0.104209 0.000000
v 0.072202 0.103981 0.000000
v 0.096083 0.103819 0.000000
v 0.120038 0.103734 0.000000
v 0.144063 0.103710 0.000000
v 0.168215 0.103735 0.000000
v 0.192676 0.103806 0.000000
v 0.217834 0.103912 0.000000
v 0.244324 0.103952 0.000000
v 0.272980 0.103527 0.000000
v 0.304521 0.101503 0.000000
v 0.338304 0.095571 0.000000
v 0.369079 0.088340 0.000000
v 0.394971 0.084576 0.000000
v 0.418267 0.090185 0.000000
v 0.439723 0.101842 0.000000
v 0.460963 0.113708 0.000000
v 0.478494 0.125920 0.000000
v -0.490784 0.163580 0.000000
v -0.452471 0.153175 0.000000
v -0.424507 0.143814 0.000000
v -0.401479 0.134307 0.000000
v -0.380958 0.124845 0.000000
v -0.360360 0.117946 0.000000
v -0.337321 0.116278 0.000000
v -0.310855 0.119234 0.000000
v -0.281879 0.123839 0.000000
v -0.252459 0.127314 0.000000
v -0.223780 0.128791 0.000000
v -0.196244 0.128893 0.000000
v -0.170060 0.128393 0.000000
v -0.144920 0.127941 0.000000
v -0.120308 0.127877 0.000000
v -0.095787 0.128162 0.000000
v -0.071205 0.128488 0.000000
v -0.046654 0.128734 0.000000
v -0.022279 0.129057 0.000000
v 0.001779 0.129391 0.000000
v 0.025475 0.129406 0.000000
v 0.048964 0.129035 0.000000
v 0.072495 0.128551 0.000000
v 0.096197 0.128176 0.000000
v 0.120065 0.127955 0.000000
v 0.144044 0.127862 0.000000
v 0.168116 0.127859 0.000000
v 0.192347 0.127912 0.000000
v 0.216928 0.127976 0.000000
v 0.242212 0.127972 0.000000
v 0.268672 0.127694 0.000000
v 0.296677 0.126688 0.000000
v 0.325978 0.124333 0.000000
v 0.355011 0.121014 0.000000
v 0.382032 0.118745 0.000000
v 0.406931 0.120196 0.000000
v 0.430733 0.126348 0.000000
v 0.455429 0.136267 0.000000
v 0.486958 0.151238 0.000000
v -0.494182 0.187921 0.000000
v -0.465568 0.186113 0.000000
v -0.446638 0.177332 0.000000
v -0.420057 0.169272 0.000000
v -0.394875 0.161763 0.000000
v -0.371553 0.154972 0.000000
v -0.349071 0.149606 0.000000
v -0.326052 0.146699 0.000000
v -0.301495 0.146544 0.000000
v -0.275308 0.148176 0.000000
v -0.248243 0.150091 0.000000
v -0.221242 0.151255 0.000000
v -0.194893 0.151504 0.000000
v -0.169423 0.151222 0.000000
v -0.144739 0.150923 0.000000
v -0.120497 0.151022 0.000000
v -0.096114 0.151823 0.000000
v -0.071232 0.152841 0.000000
v -0.046168 0.153238 0.000000
v -0.021275 0.153531 0.000000
v 0.003223 0.154419 0.000000
v 0.026992 0.155085 0.000000
v 0.050079 0.154658 0.000000
v 0.073063 0.153688 0.000000
v 0.096394 0.152920 0.000000
v 0.120092 0.152449 0.000000
v 0.144022 0.152218 0.000000
v 0.168076 0.152162 0.000000
v 0.192231 0.152228 0.000000
v 0.216553 0.152349 0.000000
v 0.241199 0.152437 0.000000
v 0.266415 0.152391 0.000000
v 0.292436 0.152053 0.000000
v 0.319232 0.151206 0.000000
v 0.346286 0.149918 0.000000
v 0.372740 0.148851 0.000000
v 0.397963 0.149086 0.000000
v 0.422169 0.151879 0.000000
v 0.445938 0.157474 0.000000
v 0.470850 0.166871 0.000000
v 0.494694 0.176788 0.000000
v -0.473257 0.204493 0.000000
v -0.459018 0.203014 0.000000
v -0.437825 0.199818 0.000000
v -0.414811 0.194412 0.000000
v -0.390160 0.188490 0.000000
v -0.365813 0.183104 0.000000
v -0.342086 0.178731 0.000000
v -0.318503 0.175743 0.000000
v -0.294433 0.174320 0.000000
v -0.269547 0.174198 0.000000
v -0.243994 0.174668 0.000000
v -0.218257 0.174992 0.000000
v -0.192853 0.174808 0.000000
v -0.168100 0.174220 0.000000
v -0.144051 0.173609 0.000000
v -0.120403 0.173512 0.000000
v -0.096950 0.174167 0.000000
v -0.072023 0.176993 0.000000
v -0.045974 0.178536 0.000000
v -0.020382 0.177599 0.000000
v 0.005015 0.178559 0.000000
v 0.029567 0.181423 0.000000
v 0.052289 0.181881 0.000000
v 0.074087 0.179667 0.000000
v 0.096648 0.178206 0.000000
v 0.120032 0.177366 0.000000
v 0.143910 0.176919 0.000000
v 0.168003 0.176744 0.000000
v 0.192193 0.176796 0.000000
v 0.216486 0.177021 0.000000
v 0.240930 0.177271 0.000000
v 0.265593 0.177402 0.000000
v 0.290619 0.177431 0.000000
v 0.316091 0.177347 0.000000
v 0.341760 0.177036 0.000000
v 0.367381 0.176922 0.000000
v 0.392518 0.177097 0.000000
v 0.416247 0.177396 0.000000
v 0.439663 0.180503 0.000000
v 0.460119 0.182827 0.000000
v 0.483465 0.196576 0.000000
v -0.451553 0.220028 0.000000
v -0.432166 0.220630 0.000000
v -0.409953 0.219628 0.000000
v -0.386419 0.215265 0.000000
v -0.362145 0.210924 0.000000
v -0.337881 0.207123 0.000000
v -0.313765 0.204194 0.000000
v -0.289579 0.202132 0.000000
v -0.265066 0.200977 0.000000
v -0.240168 0.200417 0.000000
v -0.215077 0.199899 0.000000
v -0.190167 0.199002 0.000000
v -0.165893 0.197657 0.000000
v -0.142401 0.196282 0.000000
v -0.119768 0.195239 0.000000
v -0.096681 0.195882 0.000000
v -0.076068 0.195635 0.000000
v -0.045765 0.208952 0.000000
v -0.020140 0.201709 0.000000
v 0.006457 0.200222 0.000000
v 0.032759 0.204447 0.000000
v 0.057406 0.214531 0.000000
v 0.075883 0.206535 0.000000
v 0.096791 0.203937 0.000000
v 0.119642 0.202751 0.000000
v 0.143530 0.202108 0.000000
v 0.167773 0.201758 0.000000
v 0.192093 0.201685 0.000000
v 0.216481 0.201980 0.000000
v 0.241018 0.202532 0.000000
v 0.265639 0.202896 0.000000
v 0.290238 0.202928 0.000000
v 0.315108 0.203235 0.000000
v 0.340248 0.203617 0.000000
v 0.364782 0.203389 0.000000
v 0.390063 0.205170 0.000000
v 0.414715 0.204953 0.000000
v 0.434248 0.200654 0.000000
v 0.462161 0.212657 0.000000
v -0.429123 0.234495 0.000000
v -0.406021 0.247862 0.000000
v -0.383616 0.241981 0.000000
v -0.359687 0.239301 0.000000
v -0.335299 0.235624 0.000000
v -0.310802 0.233045 0.000000
v -0.286301 0.230434 0.000000
v -0.261679 0.228352 0.000000
v -0.236836 0.227067 0.000000
v -0.211833 0.225938 0.000000
v -0.186890 0.224375 0.000000
v -0.162459 0.222093 0.000000
v -0.139528 0.219189 0.000000
v -0.117087 0.217353 0.000000
v -0.097979 0.214397 0.000000
v -0.068914 0.222083 0.000000
v 0.078576 0.230636 0.000000
v 0.096250 0.229127 0.000000
v 0.118287 0.228328 0.000000
v 0.142523 0.227815 0.000000
v 0.167207 0.227387 0.000000
v 0.191845 0.227051 0.000000
v 0.216340 0.227089 0.000000
v 0.241032 0.228020 0.000000
v 0.266089 0.229217 0.000000
v 0.290880 0.229163 0.000000
v 0.314937 0.228438 0.000000
v 0.340324 0.230415 0.000000
v 0.365655 0.230743 0.000000
v 0.386124 0.227035 0.000000
v 0.417336 0.241624 0.000000
v 0.440107 0.227694 0.000000
v -0.382302 0.260104 0.000000
v -0.358020 0.271190 0.000000
v -0.333742 0.263012 0.000000
v -0.308887 0.262766 0.000000
v -0.283987 0.260266 0.000000
v -0.259059 0.256284 0.000000
v -0.233919 0.254411 0.000000
v -0.208622 0.253084 0.000000
v -0.183289 0.251204 0.000000
v -0.158119 0.248204 0.000000
v -0.133668 0.243950 0.000000
v -0.115242 0.237453 0.000000
v -0.087361 0.241213 0.000000
v 0.093800 0.252388 0.000000
v 0.114154 0.253523 0.000000
v 0.140273 0.253855 0.000000
v 0.166053 0.253758 0.000000
v 0.191383 0.253226 0.000000
v 0.216232 0.252549 0.000000
v 0.240469 0.252581 0.000000
v 0.266095 0.255960 0.000000
v 0.292383 0.257850 0.000000
v 0.316749 0.254629 0.000000
v 0.337326 0.251070 0.000000
v 0.369817 0.265919 0.000000
v 0.393870 0.254347 0.000000
v -0.333164 0.280921 0.000000
v -0.307851 0.289387 0.000000
v -0.282143 0.296566 0.000000
v -0.257077 0.283793 0.000000
v -0.231451 0.281652 0.000000
v -0.205606 0.280995 0.000000
v -0.179691 0.279554 0.000000
v -0.153834 0.276423 0.000000
v -0.127817 0.271239 0.000000
v -0.098276 0.265389 0.000000
v 0.099974 0.278179 0.000000
v 0.136267 0.279817 0.000000
v 0.164212 0.280821 0.000000
v 0.190561 0.280563 0.000000
v 0.216294 0.279224 0.000000
v 0.241061 0.277274 0.000000
v 0.262184 0.275656 0.000000
v 0.294642 0.293290 0.000000
v 0.320169 0.285492 0.000000
v 0.345232 0.276312 0.000000
v -0.256066 0.302253 0.000000
v -0.229690 0.306339 0.000000
v -0.203110 0.308728 0.000000
v -0.176423 0.309062 0.000000
v -0.149831 0.306900 0.000000
v -0.123698 0.301597 0.000000
v -0.098889 0.291892 0.000000
v 0.110636 0.297252 0.000000
v 0.136251 0.304625 0.000000
v 0.162672 0.308288 0.000000
v 0.189343 0.309228 0.000000
v 0.215993 0.307782 0.000000
v 0.242495 0.304620 0.000000
v 0.268719 0.299651 0.000000
f 1 20 19
f 1 2 21
f 1 21 20
f 2 3 22
f 2 22 21
f 3 4 23
f 3 23 22
f 4 5 24
f 4 24 23
f 5 6 25
f 5 25 24
f 6 7 26
f 6 26 25
f 7 8 27
f 7 27 26
f 8 9 28
f 8 28 27
f 9 10 29
f 9 29 28
f 10 11 30
f 10 30 29
f 11 12 31
f 11 31 30
f 12 13 32
f 12 32 31
f 13 14 33
f 13 33 32
f 14 15 34
f 14 34 33
f 15 35 34
f 16 17 40
f 16 40 39
f 17 18 41
f 17 41 40
f 18 19 42
f 18 42 41
f 19 20 43
f 19 43 42
f 20 21 44
f 20 44 43
f 21 22 45
f 21 45 44
f 22 23 46
f 22 46 45
f 23 24 47
f 23 47 46
f 24 25 48
f 24 48 47
f 25 26 49
f 25 49 48
f 26 27 50
f 26 50 49
f 27 28 51
f 27 51 50
f 28 29 52
f 28 52 51
f 29 30 53
f 29 53 52
f 30 31 54
f 30 54 53
f 31 32 55
f 31 55 54
f 32 33 56
f 32 56 55
f 33 34 57
f 33 57 56
f 34 35 58
f 34 58 57
f 35 36 59
f 35 59 58
f 36 37 60
f 36 60 59
f 37 38 61
f 37 61 60
f 39 40 63
f 39 63 62
f 40 41 64
f 40 64 63
f 41 42 65
f 41 65 64
f 42 43 66
f 42 66 65
f 43 44 67
f 43 67 66
f 44 45 68
f 44 68 67
f 45 46 69
f 45 69 68
f 46 47 70
f 46 70 69
f 47 48 71
f 47 71 70
f 48 49 72
f 48 72 71
f 49 50 73
f 49 73 72
f 50 51 74
f 50 74 73
f 51 52 75
f 51 75 74
f 52 53 76
f 52 76 75
f 53 54 77
f 53 77 76
f 54 55 78
f 54 78 77
f 55 56 79
f 55 79 78
f 56 57 80
f 56 80 79
f 57 58 81
f 57 81 80
f 58 59 82
f 58 82 81
f 59 60 83
f 59 83 82
f 60 61 84
f 60 84 83
f 62 63 86
f 62 86 85
f 63 64 87
f 63 87 86
f 64 65 88
f 64 88 87
f 65 66 89
f 65 89 88
f 66 67 90
f 66 90 89
f 67 68 91
f 67 91 90
f 68 69 92
f 68 92 91
f 69 70 93
f 69 93 92
f 70 71 94
f 70 94 93
f 71 72 95
f 71 95 94
f 72 73 96
f 72 96 95
f 73 74 97
f 73 97 96
f 74 75 98
f 74 98 97
f 75 76 99
f 75 99 98
f 76 77 100
f 76 100 99
f 77 78 101
f 77 101 100
f 78 79 102
f 78 102 101
f 79 80 103
f 79 103 102
f 80 81 104
f 80 104 103
f 81 82 105
f 81 105 104
f 82 83 106
f 82 106 105
f 83 84 107
f 83 107 106
f 85 86 109
f 85 109 108
f 86 87 110
f 86 110 109
f 87 88 111
f 87 111 110
f 88 89 112
f 88 112 111
f 89 90 113
f 89 113 112
f 90 91 114
f 90 114 113
f 91 92 115
f 91 115 114
f 92 93 116
f 92 116 115
f 93 94 117
f 93 117 116
f 94 95 118
f 94 118 117
f 95 96 119
f 95 119 118
f 96 97 120
f 96 120 119
f 97 98 121
f 97 121 120
f 98 99 122
f 98 122 121
f 99 100 123
f 99 123 122
f 100 101 124
f 100 124 123
f 101 102 125
f 101 125 124
f 102 103 126
f 102 126 125
f 103 104 127
f 103 127 126
f 104 105 128
f 104 128 127
f 105 106 129
f 105 129 128
f 106 107 130
f 106 130 129
f 108 132 131
f 108 109 133
f 108 133 132
f 109 110 134
f 109 134 133
f 110 111 135
f 110 135 134
f 111 112 136
f 111 136 135
f 112 113 137
f 112 137 136
f 113 114 138
f 113 138 137
f 114 115 139
f 114 139 138
f 115 116 140
f 115 140 139
f 116 117 141
f 116 141 140
f 117 118 142
f 117 142 141
f 118 119 143
f 118 143 142
f 119 120 144
f 119 144 143
f 120 121 145
f 120 145 144
f 121 122 146
f 121 146 145
f 122 123 147
f 122 147 146
f 123 124 148
f 123 148 147
f 124 125 149
f 124 149 148
f 125 126 150
f 125 150 149
f 126 127 151
f 126 151 150
f 127 128 152
f 127 152 151
f 128 129 153
f 128 153 152
f 129 130 154
f 129 154 153
f 130 155 154
f 131 132 157
f 131 157 156
f 132 133 158
f 132 158 157
f 133 134 159
f 133 159 158
f 134 135 160
f 134 160 159
f 135 136 161
f 135 161 160
f 136 137 162
f 136 162 161
f 137 138 163
f 137 163 162
f 138 139 164
f 138 164 163
f 139 140 165
f 139 165 164
f 140 141 166
f 140 166 165
f 141 142 167
f 141 167 166
f 142 143 168
f 142 168 167
f 143 144 169
f 143 169 168
f 144 145 170
f 144 170 169
f 145 146 171
f 145 171 170
f 146 147 172
f 146 172 171
f 147 148 173
f 147 173 172
f 148 149 174
f 148 174 173
f 149 150 175
f 149 175 174
f 150 151 176
f 150 176 175
f 151 152 177
f 151 177 176
f 152 153 178
f 152 178 177
f 153 154 179
f 153 179 178
f 154 155 180
f 154 180 179
f 156 157 182
f 156 182 181
f 157 158 183
f 157 183 182
f 158 159 184
f 158 184 183
f 159 160 185
f 159 185 184
f 160 161 186
f 160 186 185
f 161 162 187
f 161 187 186
f 162 163 188
f 162 188 187
f 163 164 189
f 163 189 188
f 164 165 190
f 164 190 189
f 165 166 191
f 165 191 190
f 166 167 192
f 166 192 191
f 167 168 193
f 167 193 192
f 168 169 194
f 168 194 193
f 169 170 195
f 169 195 194
f 170 171 196
f 170 196 195
f 171 172 197
f 171 197 196
f 172 173 198
f 172 198 197
f 173 174 199
f 173 199 198
f 174 175 200
f 174 200 199
f 175 176 201
f 175 201 200
f 176 177 202
f 176 202 201
f 177 178 203
f 177 203 202
f 178 179 204
f 178 204 203
f 179 180 205
f 179 205 204
f 181 182 207
f 181 207 206
f 182 183 208
f 182 208 207
f 183 184 209
f 183 209 208
f 184 185 210
f 184 210 209
f 185 186 211
f 185 211 210
f 186 187 212
f 186 212 211
f 187 188 213
f 187 213 212
f 188 189 214
f 188 214 213
f 189 190 215
f 189 215 214
f 190 191 216
f 190 216 215
f 191 192 217
f 191 217 216
f 192 193 218
f 192 218 217
f 193 194 219
f 193 219 218
f 194 195 220
f 194 220 219
f 195 196 221
f 195 221 220
f 196 197 222
f 196 222 221
f 197 198 223
f 197 223 222
f 198 199 224
f 198 224 223
f 199 200 225
f 199 225 224
f 200 201 226
f 200 226 225
f 201 202 227
f 201 227 226
f 202 203 228
f 202 228 227
f 203 204 229
f 203 229 228
f 204 205 230
f 204 230 229
f 206 207 232
f 206 232 231
f 207 208 233
f 207 233 232
f 208 209 234
f 208 234 233
f 209 210 235
f 209 235 234
f 210 211 236
f 210 236 235
f 211 212 237
f 211 237 236
f 212 213 238
f 212 238 237
f 213 214 239
f 213 239 238
f 214 215 240
f 214 240 239
f 215 216 241
f 215 241 240
f 216 217 242
f 216 242 241
f 217 218 243
f 217 243 242
f 218 219 244
f 218 244 243
f 219 220 245
f 219 245 244
f 220 221 246
f 220 246 245
f 221 222 247
f 221 247 246
f 222 223 248
f 222 248 247
f 223 224 249
f 223 249 248
f 224 225 250
f 224 250 249
f 225 226 251
f 225 251 250
f 226 227 252
f 226 252 251
f 227 228 253
f 227 253 252
f 228 229 254
f 228 254 253
f 229 230 255
f 229 255 254
f 231 232 257
f 231 257 256
f 232 233 258
f 232 258 257
f 233 234 259
f 233 259 258
f 234 235 260
f 234 260 259
f 235 236 261
f 235 261 260
f 236 237 262
f 236 262 261
f 237 238 263
f 237 263 262
f 238 239 264
f 238 264 263
f 239 240 265
f 239 265 264
f 240 241 266
f 240 266 265
f 241 242 267
f 241 267 266
f 242 243 268
f 242 268 267
f 243 244 269
f 243 269 268
f 244 245 270
f 244 270 269
f 245 246 271
f 245 271 270
f 246 247 272
f 246 272 271
f 247 248 273
f 247 273 272
f 248 249 274
f 248 274 273
f 249 250 275
f 249 275 274
f 250 251 276
f 250 276 275
f 251 252 277
f 251 277 276
f 252 253 278
f 252 278 277
f 253 254 279
f 253 279 278
f 254 255 280
f 254 280 279
f 256 257 282
f 256 282 281
f 257 258 283
f 257 283 282
f 258 259 284
f 258 284 283
f 259 260 285
f 259 285 284
f 260 261 286
f 260 286 285
f 261 262 287
f 261 287 286
f 262 263 288
f 262 288 287
f 263 264 289
f 263 289 288
f 264 265 290
f 264 290 289
f 265 266 291
f 265 291 290
f 266 267 292
f 266 292 291
f 267 268 293
f 267 293 292
f 268 269 294
f 268 294 293
f 269 270 295
f 269 295 294
f 270 271 296
f 270 296 295
f 271 272 297
f 271 297 296
f 272 273 298
f 272 298 297
f 273 274 299
f 273 299 298
f 274 275 300
f 274 300 299
f 275 276 301
f 275 301 300
f 276 277 302
f 276 302 301
f 277 278 303
f 277 303 302
f 278 279 304
f 278 304 303
f 279 280 305
f 279 305 304
f 281 282 307
f 281 307 306
f 282 283 308
f 282 308 307
f 283 284 309
f 283 309 308
f 284 285 310
f 284 310 309
f 285 286 311
f 285 311 310
f 286 287 312
f 286 312 311
f 287 288 313
f 287 313 312
f 288 289 314
f 288 314 313
f 289 290 315
f 289 315 314
f 290 291 316
f 290 316 315
f 291 292 317
f 291 317 316
f 292 293 318
f 292 318 317
f 293 294 319
f 293 319 318
f 294 295 320
f 294 320 319
f 295 296 321
f 295 321 320
f 296 297 322
f 296 322 321
f 297 298 323
f 297 323 322
f 298 299 324
f 298 324 323
f 299 300 325
f 299 325 324
f 300 301 326
f 300 326 325
f 301 302 327
f 301 327 326
f 302 303 328
f 302 328 327
f 303 304 329
f 303 329 328
f 304 305 330
f 304 330 329
f 306 307 332
f 306 332 331
f 307 308 333
f 307 333 332
f 308 309 334
f 308 334 333
f 309 310 335
f 309 335 334
f 310 311 336
f 310 336 335
f 311 312 337
f 311 337 336
f 312 313 338
f 312 338 337
f 313 314 339
f 313 339 338
f 314 315 340
f 314 340 339
f 315 316 341
f 315 341 340
f 316 317 342
f 316 342 341
f 317 318 343
f 317 343 342
f 318 319 344
f 318 344 343
f 319 320 345
f 319 345 344
f 320 321 346
f 320 346 345
f 321 322 347
f 321 347 346
f 322 323 348
f 322 348 347
f 323 324 349
f 323 349 348
f 324 325 350
f 324 350 349
f 325 326 351
f 325 351 350
f 326 327 352
f 326 352 351
f 327 328 353
f 327 353 352
f 328 329 354
f 328 354 353
f 329 330 355
f 329 355 354
f 331 332 357
f 331 357 356
f 332 333 358
f 332 358 357
f 333 334 359
f 333 359 358
f 334 335 360
f 334 360 359
f 335 336 361
f 335 361 360
f 336 337 362
f 336 362 361
f 337 338 363
f 337 363 362
f 338 339 364
f 338 364 363
f 339 340 365
f 339 365 364
f 340 341 366
f 340 366 365
f 341 342 367
f 341 367 366
f 342 343 368
f 342 368 367
f 343 344 369
f 343 369 368
f 344 345 370
f 344 370 369
f 345 346 371
f 345 371 370
f 346 347 372
f 346 372 371
f 347 348 373
f 347 373 372
f 348 349 374
f 348 374 373
f 349 350 375
f 349 375 374
f 350 351 376
f 350 376 375
f 351 352 377
f 351 377 376
f 352 353 378
f 352 378 377
f 353 354 379
f 353 379 378
f 354 355 380
f 354 380 379
f 356 357 385
f 356 384 385
f 357 358 386
f 357 386 385
f 358 359 387
f 358 387 386
f 359 360 388
f 359 388 387
f 360 361 389
f 360 389 388
f 361 362 390
f 361 390 389
f 362 363 391
f 362 391 390
f 363 364 392
f 363 392 391
f 364 365 393
f 364 393 392
f 365 366 394
f 365 394 393
f 366 367 395
f 366 395 394
f 367 368 396
f 367 396 395
f 368 369 397
f 368 397 396
f 369 370 398
f 369 398 397
f 370 371 399
f 370 399 398
f 371 372 400
f 371 400 399
f 372 373 401
f 372 401 400
f 373 374 402
f 373 402 401
f 374 375 403
f 374 403 402
f 375 376 404
f 375 404 403
f 376 377 405
f 376 405 404
f 377 378 406
f 377 406 405
f 378 379 407
f 378 407 406
f 379 408 380
f 379 408 407
f 381 413 412
f 381 382 414
f 381 414 413
f 382 383 415
f 382 415 414
f 383 416 415
f 384 419 418
f 384 385 420
f 384 420 419
f 385 386 421
f 385 421 420
f 386 387 422
f 386 422 421
f 387 388 423
f 387 423 422
f 388 389 424
f 388 424 423
f 389 390 425
f 389 425 424
f 390 391 426
f 390 426 425
f 391 392 427
f 391 427 426
f 392 393 428
f 392 428 427
f 393 394 429
f 393 429 428
f 394 395 430
f 394 430 429
f 395 396 431
f 395 431 430
f 396 397 432
f 396 432 431
f 397 398 433
f 397 433 432
f 398 399 434
f 398 434 433
f 399 400 435
f 399 435 434
f 400 401 436
f 400 436 435
f 401 402 437
f 401 437 436
f 402 403 438
f 402 438 437
f 403 404 439
f 403 439 438
f 404 405 440
f 404 440 439
f 405 406 441
f 405 441 440
f 406 407 442
f 406 442 441
f 407 408 443
f 407 443 442
f 408 444 443
f 409 447 446
f 409 410 448
f 409 448 447
f 410 411 449
f 410 449 448
f 411 450 449
f 412 413 452
f 412 452 451
f 413 414 453
f 413 453 452
f 414 415 454
f 414 454 453
f 415 416 455
f 415 455 454
f 416 417 456
f 416 456 455
f 417 418 457
f 417 457 456
f 418 419 458
f 418 458 457
f 419 420 459
f 419 459 458
f 420 421 460
f 420 460 459
f 421 422 461
f 421 461 460
f 422 423 462
f 422 462 461
f 423 424 463
f 423 463 462
f 424 425 464
f 424 464 463
f 425 426 465
f 425 465 464
f 426 427 466
f 426 466 465
f 427 428 467
f 427 467 466
f 428 429 468
f 428 468 467
f 429 430 469
f 429 469 468
f 430 431 470
f 430 470 469
f 431 432 471
f 431 471 470
f 432 433 472
f 432 472 471
f 433 434 473
f 433 473 472
f 434 435 474
f 434 474 473
f 435 436 475
f 435 475 474
f 436 437 476
f 436 476 475
f 437 438 477
f 437 477 476
f 438 439 478
f 438 478 477
f 439 440 479
f 439 479 478
f 440 441 480
f 440 480 479
f 441 442 481
f 441 481 480
f 442 443 482
f 442 482 481
f 443 444 483
f 443 483 482
f 444 445 484
f 444 484 483
f 445 446 485
f 445 485 484
f 446 447 486
f 446 486 485
f 447 448 487
f 447 487 486
f 448 449 488
f 448 488 487
f 449 450 489
f 449 489 488
f 451 452 491
f 451 491 490
f 452 453 492
f 452 492 491
f 453 454 493
f 453 493 492
f 454 455 494
f 454 494 493
f 455 456 495
f 455 495 494
f 456 457 496
f 456 496 495
f 457 458 497
f 457 497 496
f 458 459 498
f 458 498 497
f 459 460 499
f 459 499 498
f 460 461 500
f 460 500 499
f 461 462 501
f 461 501 500
f 462 463 502
f 462 502 501
f 463 464 503
f 463 503 502
f 464 465 504
f 464 504 503
f 465 466 505
f 465 505 504
f 466 467 506
f 466 506 505
f 467 468 507
f 467 507 506
f 468 469 508
f 468 508 507
f 469 470 509
f 469 509 508
f 470 471 510
f 470 510 509
f 471 472 511
f 471 511 510
f 472 473 512
f 472 512 511
f 473 474 513
f 473 513 512
f 474 475 514
f 474 514 513
f 475 476 515
f 475 515 514
f 476 477 516
f 476 516 515
f 477 478 517
f 477 517 516
f 478 479 518
f 478 518 517
f 479 480 519
f 479 519 518
f 480 481 520
f 480 520 519
f 481 482 521
f 481 521 520
f 482 483 522
f 482 522 521
f 483 484 523
f 483 523 522
f 484 485 524
f 484 524 523
f 485 486 525
f 485 525 524
f 486 487 526
f 486 526 525
f 487 488 527
f 487 527 526
f 488 489 528
f 488 528 527
f 490 530 529
f 490 491 531
f 490 531 530
f 491 492 532
f 491 532 531
f 492 493 533
f 492 533 532
f 493 494 534
f 493 534 533
f 494 495 535
f 494 535 534
f 495 496 536
f 495 536 535
f 496 497 537
f 496 537 536
f 497 498 538
f 497 538 537
f 498 499 539
f 498 539 538
f 499 500 540
f 499 540 539
f 500 501 541
f 500 541 540
f 501 502 542
f 501 542 541
f 502 503 543
f 502 543 542
f 503 504 544
f 503 544 543
f 504 505 545
f 504 545 544
f 505 506 546
f 505 546 545
f 506 507 547
f 506 547 546
f 507 508 548
f 507 548 547
f 508 509 549
f 508 549 548
f 509 510 550
f 509 550 549
f 510 511 551
f 510 551 550
f 511 512 552
f 511 552 551
f 512 513 553
f 512 553 552
f 513 514 554
f 513 554 553
f 514 515 555
f 514 555 554
f 515 516 556
f 515 556 555
f 516 517 557
f 516 557 556
f 517 518 558
f 517 558 557
f 518 519 559
f 518 559 558
f 519 520 560
f 519 560 559
f 520 521 561
f 520 561 560
f 521 522 562
f 521 562 561
f 522 523 563
f 522 563 562
f 523 524 564
f 523 564 563
f 524 525 565
f 524 565 564
f 525 526 566
f 525 566 565
f 526 527 567
f 526 567 566
f 527 528 568
f 527 568 567
f 528 569 568
f 529 530 571
f 529 571 570
f 530 531 572
f 530 572 571
f 531 532 573
f 531 573 572
f 532 533 574
f 532 574 573
f 533 534 575
f 533 575 574
f 534 535 576
f 534 576 575
f 535 536 577
f 535 577 576
f 536 537 578
f 536 578 577
f 537 538 579
f 537 579 578
f 538 539 580
f 538 580 579
f 539 540 581
f 539 581 580
f 540 541 582
f 540 582 581
f 541 542 583
f 541 583 582
f 542 543 584
f 542 584 583
f 543 544 585
f 543 585 584
f 544 545 586
f 544 586 585
f 545 546 587
f 545 587 586
f 546 547 588
f 546 588 587
f 547 548 589
f 547 589 588
f 548 549 590
f 548 590 589
f 549 550 591
f 549 591 590
f 550 551 592
f 550 592 591
f 551 552 593
f 551 593 592
f 552 553 594
f 552 594 593
f 553 554 595
f 553 595 594
f 554 555 596
f 554 596 595
f 555 556 597
f 555 597 596
f 556 557 598
f 556 598 597
f 557 558 599
f 557 599 598
f 558 559 600
f 558 600 599
f 559 560 601
f 559 601 600
f 560 561 602
f 560 602 601
f 561 562 603
f 561 603 602
f 562 563 604
f 562 604 603
f 563 564 605
f 563 605 604
f 564 565 606
f 564 606 605
f 565 566 607
f 565 607 606
f 566 567 608
f 566 608 607
f 567 568 609
f 567 609 608
f 568 569 610
f 568 610 609
f 570 571 611
f 571 572 612
f 571 612 611
f 572 573 613
f 572 613 612
f 573 574 614
f 573 614 613
f 574 575 615
f 574 615 614
f 575 576 616
f 575 616 615
f 576 577 617
f 576 617 616
f 577 578 618
f 577 618 617
f 578 579 619
f 578 619 618
f 579 580 620
f 579 620 619
f 580 581 621
f 580 621 620
f 581 582 622
f 581 622 621
f 582 583 623
f 582 623 622
f 583 584 624
f 583 624 623
f 584 585 625
f 584 625 624
f 585 586 626
f 585 626 625
f 586 587 627
f 586 627 626
f 587 588 628
f 587 628 627
f 588 589 629
f 588 629 628
f 589 590 630
f 589 630 629
f 590 591 631
f 590 631 630
f 591 592 632
f 591 632 631
f 592 593 633
f 592 633 632
f 593 594 634
f 593 634 633
f 594 595 635
f 594 635 634
f 595 596 636
f 595 636 635
f 596 597 637
f 596 637 636
f 597 598 638
f 597 638 637
f 598 599 639
f 598 639 638
f 599 600 640
f 599 640 639
f 600 601 641
f 600 641 640
f 601 602 642
f 601 642 641
f 602 603 643
f 602 643 642
f 603 604 644
f 603 644 643
f 604 605 645
f 604 645 644
f 605 606 646
f 605 646 645
f 606 607 647
f 606 647 646
f 607 608 648
f 607 648 647
f 608 609 649
f 608 649 648
f 609 610 649
f 611 612 650
f 612 613 651
f 612 651 650
f 613 614 652
f 613 652 651
f 614 615 653
f 614 653 652
f 615 616 654
f 615 654 653
f 616 617 655
f 616 655 654
f 617 618 656
f 617 656 655
f 618 619 657
f 618 657 656
f 619 620 658
f 619 658 657
f 620 621 659
f 620 659 658
f 621 622 660
f 621 660 659
f 622 623 661
f 622 661 660
f 623 624 662
f 623 662 661
f 624 625 663
f 624 663 662
f 625 626 664
f 625 664 663
f 626 627 665
f 626 665 664
f 627 628 665
f 632 633 666
f 633 634 667
f 633 667 666
f 634 635 668
f 634 668 667
f 635 636 669
f 635 669 668
f 636 637 670
f 636 670 669
f 637 638 671
f 637 671 670
f 638 639 672
f 638 672 671
f 639 640 673
f 639 673 672
f 640 641 674
f 640 674 673
f 641 642 675
f 641 675 674
f 642 643 676
f 642 676 675
f 643 644 677
f 643 677 676
f 644 645 678
f 644 678 677
f 645 646 679
f 645 679 678
f 646 647 680
f 646 680 679
f 647 648 681
f 647 681 680
f 648 649 681
f 651 652 682
f 652 653 683
f 652 683 682
f 653 654 684
f 653 684 683
f 654 655 685
f 654 685 684
f 655 656 686
f 655 686 685
f 656 657 687
f 656 687 686
f 657 658 688
f 657 688 687
f 658 659 689
f 658 689 688
f 659 660 690
f 659 690 689
f 660 661 691
f 660 691 690
f 661 662 692
f 661 692 691
f 662 663 693
f 662 693 692
f 663 664 694
f 663 694 693
f 664 665 694
f 666 667 695
f 667 668 696
f 667 696 695
f 668 669 697
f 668 697 696
f 669 670 698
f 669 698 697
f 670 671 699
f 670 699 698
f 671 672 700
f 671 700 699
f 672 673 701
f 672 701 700
f 673 674 702
f 673 702 701
f 674 675 703
f 674 703 702
f 675 676 704
f 675 704 703
f 676 677 705
f 676 705 704
f 677 678 706
f 677 706 705
f 678 679 707
f 678 707 706
f 679 680 707
f 683 684 708
f 684 685 709
f 684 709 708
f 685 686 710
f 685 710 709
f 686 687 711
f 686 711 710
f 687 688 712
f 687 712 711
f 688 689 713
f 688 713 712
f 689 690 714
f 689 714 713
f 690 691 715
f 690 715 714
f 691 692 716
f 691 716 715
f 692 693 717
f 692 717 716
f 693 694 717
f 695 696 718
f 696 697 719
f 696 719 718
f 697 698 720
f 697 720 719
f 698 699 721
f 698 721 720
f 699 700 722
f 699 722 721
f 700 701 723
f 700 723 722
f 701 702 724
f 701 724 723
f 702 703 725
f 702 725 724
f 703 704 726
f 703 726 725
f 704 705 727
f 704 727 726
f 705 706 727
f 710 711 728
f 711 712 729
f 711 729 728
f 712 713 730
f 712 730 729
f 713 714 731
f 713 731 730
f 714 715 732
f 714 732 731
f 715 716 733
f 715 733 732
f 716 717 734
f 716 734 733
f 718 719 736
f 718 736 735
f 719 720 737
f 719 737 736
f 720 721 738
f 720 738 737
f 721 722 739
f 721 739 738
f 722 723 740
f 722 740 739
f 723 724 741
f 723 741 740
f 724 725 741
