# XFOLD MuJoCo shirt surface from CLOTH3D (00742_flat.obj)
# verts=161 faces=268
v -0.321787 0.079314 0.000000
v -0.319117 0.123175 0.000000
v -0.312163 0.174125 0.000000
v -0.312596 0.224262 0.000000
v -0.315644 0.264692 0.000000
v -0.252853 -0.166836 0.000000
v -0.256715 -0.122313 0.000000
v -0.262178 -0.071880 0.000000
v -0.267342 -0.025502 0.000000
v -0.275118 0.026237 0.000000
v -0.274337 0.075871 0.000000
v -0.273034 0.124416 0.000000
v -0.275906 0.174542 0.000000
v -0.273731 0.223572 0.000000
v -0.274867 0.268896 0.000000
v -0.223483 -0.320837 0.000000
v -0.224784 -0.274663 0.000000
v -0.227250 -0.224467 0.000000
v -0.225872 -0.176199 0.000000
v -0.225263 -0.124914 0.000000
v -0.225129 -0.075044 0.000000
v -0.225186 -0.024545 0.000000
v -0.225350 0.025124 0.000000
v -0.226217 0.075175 0.000000
v -0.228796 0.127249 0.000000
v -0.225698 0.175498 0.000000
v -0.221543 0.224622 0.000000
v -0.223486 0.274341 0.000000
v -0.172130 -0.315616 0.000000
v -0.174104 -0.277745 0.000000
v -0.171343 -0.225168 0.000000
v -0.172819 -0.174821 0.000000
v -0.174859 -0.126298 0.000000
v -0.175631 -0.077067 0.000000
v -0.174171 -0.023822 0.000000
v -0.176224 0.027062 0.000000
v -0.176289 0.074991 0.000000
v -0.173798 0.123731 0.000000
v -0.175880 0.173469 0.000000
v -0.173759 0.224551 0.000000
v -0.176000 0.282316 0.000000
v -0.153684 0.300906 0.000000
v -0.125726 -0.316562 0.000000
v -0.125652 -0.276795 0.000000
v -0.124297 -0.227003 0.000000
v -0.125779 -0.176475 0.000000
v -0.124775 -0.126374 0.000000
v -0.125292 -0.076200 0.000000
v -0.125570 -0.024529 0.000000
v -0.123863 0.024865 0.000000
v -0.123234 0.074306 0.000000
v -0.124868 0.124605 0.000000
v -0.126177 0.176667 0.000000
v -0.123269 0.225668 0.000000
v -0.124142 0.275475 0.000000
v -0.129361 0.305260 0.000000
v -0.073972 -0.320276 0.000000
v -0.076084 -0.275474 0.000000
v -0.075007 -0.225260 0.000000
v -0.075966 -0.174144 0.000000
v -0.073612 -0.125649 0.000000
v -0.074593 -0.074855 0.000000
v -0.076021 -0.025818 0.000000
v -0.075978 0.024831 0.000000
v -0.074399 0.074705 0.000000
v -0.075176 0.125723 0.000000
v -0.075420 0.175078 0.000000
v -0.071694 0.226777 0.000000
v -0.081441 0.261179 0.000000
v -0.023701 -0.323183 0.000000
v -0.023875 -0.275020 0.000000
v -0.024281 -0.224811 0.000000
v -0.024462 -0.175454 0.000000
v -0.023172 -0.124284 0.000000
v -0.023982 -0.075052 0.000000
v -0.023758 -0.025296 0.000000
v -0.027757 0.024174 0.000000
v -0.028315 0.075074 0.000000
v -0.028036 0.124935 0.000000
v -0.027404 0.175279 0.000000
v -0.027510 0.229561 0.000000
v 0.024853 -0.324512 0.000000
v 0.025568 -0.275001 0.000000
v 0.026012 -0.224817 0.000000
v 0.026467 -0.174334 0.000000
v 0.027144 -0.124250 0.000000
v 0.025692 -0.076177 0.000000
v 0.025310 -0.025451 0.000000
v 0.026059 0.025478 0.000000
v 0.023086 0.074597 0.000000
v 0.024055 0.125542 0.000000
v 0.022479 0.174971 0.000000
v 0.024623 0.227151 0.000000
v 0.073599 -0.320372 0.000000
v 0.075229 -0.275086 0.000000
v 0.075221 -0.225863 0.000000
v 0.074509 -0.175364 0.000000
v 0.076383 -0.124875 0.000000
v 0.073504 -0.074810 0.000000
v 0.074230 -0.024792 0.000000
v 0.076088 0.025153 0.000000
v 0.075519 0.074775 0.000000
v 0.075660 0.124632 0.000000
v 0.072265 0.174773 0.000000
v 0.072288 0.228224 0.000000
v 0.082507 0.261087 0.000000
v 0.126824 -0.315144 0.000000
v 0.124786 -0.275585 0.000000
v 0.124972 -0.225006 0.000000
v 0.124128 -0.176701 0.000000
v 0.125995 -0.126352 0.000000
v 0.123708 -0.075918 0.000000
v 0.126653 -0.024651 0.000000
v 0.124860 0.024051 0.000000
v 0.124781 0.074908 0.000000
v 0.126177 0.126415 0.000000
v 0.123444 0.174424 0.000000
v 0.125481 0.224228 0.000000
v 0.127124 0.278316 0.000000
v 0.172696 -0.313659 0.000000
v 0.172731 -0.273485 0.000000
v 0.170697 -0.224367 0.000000
v 0.174546 -0.174996 0.000000
v 0.175528 -0.124412 0.000000
v 0.174597 -0.074833 0.000000
v 0.175417 -0.027165 0.000000
v 0.173877 0.025421 0.000000
v 0.173297 0.074896 0.000000
v 0.174055 0.123257 0.000000
v 0.174113 0.174587 0.000000
v 0.177213 0.224432 0.000000
v 0.176077 0.279709 0.000000
v 0.225963 -0.317347 0.000000
v 0.228356 -0.274601 0.000000
v 0.227418 -0.225116 0.000000
v 0.229471 -0.176105 0.000000
v 0.225519 -0.126402 0.000000
v 0.225103 -0.075133 0.000000
v 0.225005 -0.025118 0.000000
v 0.225112 0.024739 0.000000
v 0.226415 0.075087 0.000000
v 0.228133 0.126315 0.000000
v 0.223387 0.175527 0.000000
v 0.222831 0.224199 0.000000
v 0.222970 0.272052 0.000000
v 0.250909 -0.152590 0.000000
v 0.255180 -0.120327 0.000000
v 0.259982 -0.074396 0.000000
v 0.265194 -0.024314 0.000000
v 0.275291 0.027210 0.000000
v 0.275070 0.075953 0.000000
v 0.273197 0.123795 0.000000
v 0.275407 0.174960 0.000000
v 0.276558 0.225168 0.000000
v 0.274590 0.268475 0.000000
v 0.300101 0.048594 0.000000
v 0.322191 0.080049 0.000000
v 0.317889 0.122934 0.000000
v 0.311404 0.173941 0.000000
v 0.311906 0.224583 0.000000
v 0.313714 0.264857 0.000000
f 132 144 145
f 131 143 144
f 124 138 125
f 120 134 121
f 127 141 128
f 117 129 130
f 114 126 127
f 113 125 126
f 109 121 122
f 97 109 110
f 91 102 103
f 88 99 100
f 77 88 89
f 76 87 88
f 74 87 75
f 72 83 84
f 136 146 137
f 157 150 156
f 9 21 22
f 7 19 20
f 41 27 40
f 36 22 35
f 35 21 34
f 49 34 48
f 45 30 44
f 65 51 64
f 64 49 63
f 60 45 59
f 79 65 78
f 76 62 75
f 74 61 73
f 1 10 11
f 131 130 143
f 124 137 138
f 120 133 134
f 127 140 141
f 117 116 129
f 114 113 126
f 113 112 125
f 109 108 121
f 99 98 112
f 97 96 109
f 92 91 104
f 91 90 102
f 88 87 99
f 77 76 88
f 76 75 87
f 74 86 87
f 72 71 83
f 157 151 150
f 9 8 21
f 7 6 19
f 41 28 27
f 36 23 22
f 35 22 21
f 53 40 39
f 49 35 34
f 45 31 30
f 64 50 49
f 60 46 45
f 80 68 67
f 79 66 65
f 77 65 64
f 76 63 62
f 74 62 61
f 81 69 68
f 56 42 41
f 15 14 28
f 142 152 143
f 144 154 155
f 143 152 153
f 13 12 25
f 27 14 26
f 14 13 26
f 28 14 27
f 152 151 157
f 160 154 159
f 154 153 159
f 12 13 2
f 13 3 2
f 12 2 1
f 14 15 4
f 15 5 4
f 79 78 90
f 81 80 92
f 70 71 57
f 71 58 57
f 71 59 58
f 71 72 59
f 72 73 59
f 73 60 59
f 58 44 43
f 58 45 44
f 61 62 47
f 62 48 47
f 63 49 48
f 66 67 52
f 67 53 52
f 68 54 53
f 68 69 54
f 69 55 54
f 49 50 35
f 50 36 35
f 51 37 36
f 51 52 37
f 52 38 37
f 52 53 38
f 53 39 38
f 44 30 29
f 46 32 31
f 46 47 32
f 47 33 32
f 55 41 40
f 34 21 20
f 24 23 36
f 39 40 26
f 40 27 26
f 17 16 29
f 30 31 17
f 31 18 17
f 19 18 31
f 8 7 20
f 10 9 22
f 83 71 82
f 71 70 82
f 85 73 84
f 73 72 84
f 83 82 94
f 85 84 97
f 87 86 99
f 101 89 100
f 89 88 100
f 102 90 101
f 90 89 101
f 104 91 103
f 105 93 104
f 93 92 104
f 95 94 107
f 96 95 109
f 111 98 110
f 98 97 110
f 112 98 111
f 100 99 112
f 103 102 115
f 104 103 117
f 119 105 118
f 115 114 127
f 116 115 129
f 108 107 120
f 123 110 122
f 110 109 122
f 112 111 124
f 131 118 130
f 118 117 130
f 140 127 139
f 127 126 139
f 130 129 142
f 123 122 136
f 122 135 136
f 138 147 148
f 140 139 150
f 139 149 150
f 141 150 151
f 141 151 142
f 151 152 142
f 144 155 145
f 12 11 25
f 13 25 26
f 153 158 159
f 153 152 158
f 152 157 158
f 155 160 161
f 155 154 160
f 143 154 144
f 143 153 154
f 11 12 1
f 14 3 13
f 14 4 3
f 56 41 55
f 90 77 89
f 90 78 77
f 79 90 91
f 80 91 92
f 80 79 91
f 81 92 93
f 73 61 60
f 75 62 74
f 77 63 76
f 77 64 63
f 78 65 77
f 80 66 79
f 80 67 66
f 81 68 80
f 58 43 57
f 59 45 58
f 61 46 60
f 61 47 46
f 63 48 62
f 64 51 50
f 66 51 65
f 66 52 51
f 68 53 67
f 51 36 50
f 44 29 43
f 46 31 45
f 48 33 47
f 48 34 33
f 54 40 53
f 54 55 40
f 34 20 33
f 24 36 37
f 25 37 38
f 25 24 37
f 39 25 38
f 39 26 25
f 17 29 30
f 19 31 32
f 20 32 33
f 20 19 32
f 8 20 21
f 10 22 23
f 11 23 24
f 11 10 23
f 11 24 25
f 137 146 147
f 73 86 74
f 73 85 86
f 83 94 95
f 84 95 96
f 84 83 95
f 84 96 97
f 86 85 98
f 85 97 98
f 86 98 99
f 95 107 108
f 95 108 109
f 100 112 113
f 101 113 114
f 101 100 113
f 102 101 115
f 101 114 115
f 103 115 116
f 103 116 117
f 105 117 118
f 105 104 117
f 106 105 119
f 115 127 128
f 115 128 129
f 108 120 121
f 111 123 124
f 111 110 123
f 112 124 125
f 119 131 132
f 119 118 131
f 126 138 139
f 126 125 138
f 128 142 129
f 128 141 142
f 130 142 143
f 121 134 135
f 122 121 135
f 123 137 124
f 123 136 137
f 132 131 144
f 137 147 138
f 138 149 139
f 138 148 149
f 140 150 141
