# XFOLD MuJoCo shirt surface from CLOTH3D (00742_flat.obj)
# verts=385 faces=683
v -0.320421 0.063769 0.000000
v -0.333156 0.082122 0.000000
v -0.332031 0.109175 0.000000
v -0.323775 0.141239 0.000000
v -0.320959 0.166852 0.000000
v -0.320969 0.214246 0.000000
v -0.322685 0.241255 0.000000
v -0.325215 0.265138 0.000000
v -0.290360 0.028913 0.000000
v -0.299075 0.053428 0.000000
v -0.304678 0.079891 0.000000
v -0.303757 0.112058 0.000000
v -0.305580 0.144729 0.000000
v -0.305225 0.176493 0.000000
v -0.305017 0.207557 0.000000
v -0.304871 0.238712 0.000000
v -0.305101 0.269265 0.000000
v -0.256890 -0.140286 0.000000
v -0.260410 -0.110588 0.000000
v -0.263514 -0.077614 0.000000
v -0.267078 -0.049232 0.000000
v -0.270349 -0.015707 0.000000
v -0.274146 0.014623 0.000000
v -0.272585 0.048490 0.000000
v -0.273515 0.079035 0.000000
v -0.269108 0.111325 0.000000
v -0.273186 0.143444 0.000000
v -0.271800 0.175335 0.000000
v -0.271270 0.206847 0.000000
v -0.271494 0.241025 0.000000
v -0.271430 0.272388 0.000000
v -0.233432 -0.330833 0.000000
v -0.234919 -0.305708 0.000000
v -0.235701 -0.271979 0.000000
v -0.237696 -0.240277 0.000000
v -0.239744 -0.208511 0.000000
v -0.241211 -0.174755 0.000000
v -0.241297 -0.144456 0.000000
v -0.239496 -0.111258 0.000000
v -0.240325 -0.081017 0.000000
v -0.240779 -0.046765 0.000000
v -0.239311 -0.016893 0.000000
v -0.239705 0.015853 0.000000
v -0.240712 0.047620 0.000000
v -0.242338 0.080788 0.000000
v -0.244031 0.112496 0.000000
v -0.241361 0.143406 0.000000
v -0.238829 0.175198 0.000000
v -0.238202 0.207651 0.000000
v -0.239627 0.239727 0.000000
v -0.240781 0.273907 0.000000
v -0.231036 0.289296 0.000000
v -0.209725 -0.329813 0.000000
v -0.208142 -0.304093 0.000000
v -0.207212 -0.271138 0.000000
v -0.208868 -0.240449 0.000000
v -0.207589 -0.206916 0.000000
v -0.207973 -0.176943 0.000000
v -0.209311 -0.143894 0.000000
v -0.206949 -0.112993 0.000000
v -0.209264 -0.078964 0.000000
v -0.207080 -0.048714 0.000000
v -0.207937 -0.014822 0.000000
v -0.210500 0.016633 0.000000
v -0.209666 0.047288 0.000000
v -0.209885 0.080975 0.000000
v -0.208812 0.113602 0.000000
v -0.208186 0.144092 0.000000
v -0.210429 0.175674 0.000000
v -0.208718 0.207919 0.000000
v -0.208295 0.239470 0.000000
v -0.207549 0.272485 0.000000
v -0.205776 0.292760 0.000000
v -0.178120 -0.326313 0.000000
v -0.175003 -0.301770 0.000000
v -0.176947 -0.273166 0.000000
v -0.175307 -0.239828 0.000000
v -0.176663 -0.209440 0.000000
v -0.173137 -0.175371 0.000000
v -0.174671 -0.146118 0.000000
v -0.176078 -0.110836 0.000000
v -0.175473 -0.080252 0.000000
v -0.175558 -0.048299 0.000000
v -0.176555 -0.012905 0.000000
v -0.175991 0.016862 0.000000
v -0.176522 0.047765 0.000000
v -0.175854 0.081379 0.000000
v -0.176114 0.111518 0.000000
v -0.176231 0.144480 0.000000
v -0.176574 0.176936 0.000000
v -0.174769 0.206344 0.000000
v -0.177136 0.240463 0.000000
v -0.177149 0.272622 0.000000
v -0.175508 0.294722 0.000000
v -0.144224 -0.325352 0.000000
v -0.144761 -0.303106 0.000000
v -0.144312 -0.271658 0.000000
v -0.145542 -0.239307 0.000000
v -0.147136 -0.209982 0.000000
v -0.144688 -0.177547 0.000000
v -0.144472 -0.143657 0.000000
v -0.143731 -0.112771 0.000000
v -0.143393 -0.080408 0.000000
v -0.144496 -0.048016 0.000000
v -0.143353 -0.015592 0.000000
v -0.142396 0.015862 0.000000
v -0.143075 0.046401 0.000000
v -0.142934 0.080369 0.000000
v -0.142393 0.112618 0.000000
v -0.144387 0.143014 0.000000
v -0.143937 0.176174 0.000000
v -0.145197 0.208987 0.000000
v -0.142758 0.239680 0.000000
v -0.143427 0.272078 0.000000
v -0.144305 0.298627 0.000000
v -0.110759 -0.327877 0.000000
v -0.109684 -0.304511 0.000000
v -0.110571 -0.271524 0.000000
v -0.114222 -0.240600 0.000000
v -0.110527 -0.206723 0.000000
v -0.112618 -0.175604 0.000000
v -0.111956 -0.144850 0.000000
v -0.112895 -0.112176 0.000000
v -0.111211 -0.078838 0.000000
v -0.112542 -0.049558 0.000000
v -0.111116 -0.016523 0.000000
v -0.112447 0.017369 0.000000
v -0.112314 0.048745 0.000000
v -0.113256 0.079092 0.000000
v -0.111815 0.112340 0.000000
v -0.109710 0.144285 0.000000
v -0.112783 0.175539 0.000000
v -0.111356 0.206712 0.000000
v -0.112630 0.239358 0.000000
v -0.109712 0.273718 0.000000
v -0.116206 0.299567 0.000000
v -0.078521 -0.328903 0.000000
v -0.076705 -0.303319 0.000000
v -0.079669 -0.272105 0.000000
v -0.079911 -0.240099 0.000000
v -0.081587 -0.209065 0.000000
v -0.078544 -0.175021 0.000000
v -0.079667 -0.143720 0.000000
v -0.079218 -0.111922 0.000000
v -0.080814 -0.081250 0.000000
v -0.080119 -0.047087 0.000000
v -0.080945 -0.015440 0.000000
v -0.083184 0.014792 0.000000
v -0.080547 0.047360 0.000000
v -0.081974 0.080530 0.000000
v -0.081133 0.112505 0.000000
v -0.080988 0.143970 0.000000
v -0.078194 0.176076 0.000000
v -0.080840 0.208428 0.000000
v -0.078852 0.241330 0.000000
v -0.084852 0.263943 0.000000
v -0.045299 -0.331928 0.000000
v -0.046377 -0.304849 0.000000
v -0.045737 -0.272422 0.000000
v -0.048235 -0.240336 0.000000
v -0.048030 -0.208508 0.000000
v -0.049663 -0.177205 0.000000
v -0.046652 -0.144356 0.000000
v -0.049144 -0.112274 0.000000
v -0.048965 -0.079441 0.000000
v -0.048398 -0.047104 0.000000
v -0.048647 -0.016717 0.000000
v -0.048214 0.015569 0.000000
v -0.046577 0.047908 0.000000
v -0.048639 0.079694 0.000000
v -0.048545 0.111536 0.000000
v -0.048708 0.143542 0.000000
v -0.049109 0.176317 0.000000
v -0.048962 0.208299 0.000000
v -0.048600 0.242081 0.000000
v -0.015052 -0.334033 0.000000
v -0.013394 -0.303978 0.000000
v -0.013743 -0.272185 0.000000
v -0.014314 -0.239909 0.000000
v -0.014910 -0.207501 0.000000
v -0.014829 -0.175748 0.000000
v -0.016559 -0.143642 0.000000
v -0.015579 -0.111617 0.000000
v -0.017315 -0.080128 0.000000
v -0.014445 -0.049671 0.000000
v -0.012988 -0.015211 0.000000
v -0.013079 0.016667 0.000000
v -0.017954 0.047168 0.000000
v -0.016975 0.078388 0.000000
v -0.016374 0.112258 0.000000
v -0.019740 0.144014 0.000000
v -0.019114 0.175412 0.000000
v -0.017916 0.208523 0.000000
v -0.021748 0.237695 0.000000
v 0.014547 -0.335833 0.000000
v 0.018934 -0.303924 0.000000
v 0.016701 -0.272982 0.000000
v 0.015871 -0.240195 0.000000
v 0.015971 -0.207776 0.000000
v 0.016095 -0.175372 0.000000
v 0.016191 -0.143116 0.000000
v 0.016584 -0.111254 0.000000
v 0.016998 -0.079723 0.000000
v 0.017939 -0.048836 0.000000
v 0.018654 -0.015026 0.000000
v 0.017868 0.018260 0.000000
v 0.015963 0.048070 0.000000
v 0.016946 0.078739 0.000000
v 0.016103 0.112147 0.000000
v 0.015737 0.144028 0.000000
v 0.015228 0.175102 0.000000
v 0.015564 0.208560 0.000000
v 0.018666 0.236730 0.000000
v 0.045225 -0.332181 0.000000
v 0.048118 -0.303949 0.000000
v 0.046719 -0.270942 0.000000
v 0.045180 -0.239818 0.000000
v 0.046447 -0.208131 0.000000
v 0.047754 -0.176343 0.000000
v 0.046919 -0.144552 0.000000
v 0.049719 -0.112471 0.000000
v 0.047195 -0.080379 0.000000
v 0.046814 -0.046981 0.000000
v 0.049520 -0.016617 0.000000
v 0.049591 0.015279 0.000000
v 0.050055 0.048480 0.000000
v 0.049357 0.081029 0.000000
v 0.049292 0.112171 0.000000
v 0.049076 0.143651 0.000000
v 0.047031 0.176423 0.000000
v 0.047615 0.207454 0.000000
v 0.047788 0.239278 0.000000
v 0.078908 -0.329432 0.000000
v 0.076537 -0.303833 0.000000
v 0.078747 -0.272510 0.000000
v 0.078071 -0.240497 0.000000
v 0.081017 -0.208377 0.000000
v 0.080361 -0.176512 0.000000
v 0.080641 -0.144975 0.000000
v 0.079694 -0.111763 0.000000
v 0.080423 -0.079685 0.000000
v 0.079881 -0.048260 0.000000
v 0.078718 -0.015770 0.000000
v 0.079405 0.016092 0.000000
v 0.080473 0.046979 0.000000
v 0.079693 0.079598 0.000000
v 0.078255 0.112166 0.000000
v 0.078588 0.144903 0.000000
v 0.081165 0.176054 0.000000
v 0.078561 0.208573 0.000000
v 0.078500 0.241329 0.000000
v 0.083256 0.262757 0.000000
v 0.111779 -0.326736 0.000000
v 0.110019 -0.303702 0.000000
v 0.109770 -0.271636 0.000000
v 0.113083 -0.240141 0.000000
v 0.112323 -0.208690 0.000000
v 0.112978 -0.176212 0.000000
v 0.110033 -0.143670 0.000000
v 0.113170 -0.112314 0.000000
v 0.110474 -0.079286 0.000000
v 0.113913 -0.048229 0.000000
v 0.112094 -0.016309 0.000000
v 0.111458 0.015853 0.000000
v 0.108761 0.048644 0.000000
v 0.109761 0.079502 0.000000
v 0.111373 0.112351 0.000000
v 0.111979 0.144350 0.000000
v 0.112938 0.176231 0.000000
v 0.111288 0.207404 0.000000
v 0.112812 0.240653 0.000000
v 0.112637 0.272356 0.000000
v 0.114961 0.298416 0.000000
v 0.140613 -0.324447 0.000000
v 0.145349 -0.304880 0.000000
v 0.145290 -0.272249 0.000000
v 0.147461 -0.240253 0.000000
v 0.145311 -0.207999 0.000000
v 0.143353 -0.175379 0.000000
v 0.144756 -0.143768 0.000000
v 0.144522 -0.111254 0.000000
v 0.143554 -0.079813 0.000000
v 0.143410 -0.049436 0.000000
v 0.145001 -0.014588 0.000000
v 0.144034 0.018085 0.000000
v 0.144595 0.047410 0.000000
v 0.143688 0.079750 0.000000
v 0.143456 0.111914 0.000000
v 0.144859 0.143614 0.000000
v 0.144497 0.175634 0.000000
v 0.142876 0.207859 0.000000
v 0.144083 0.239427 0.000000
v 0.143564 0.273480 0.000000
v 0.142736 0.295327 0.000000
v 0.174102 -0.326119 0.000000
v 0.175626 -0.306583 0.000000
v 0.177165 -0.273027 0.000000
v 0.174895 -0.238335 0.000000
v 0.172589 -0.206847 0.000000
v 0.175332 -0.175643 0.000000
v 0.176422 -0.143315 0.000000
v 0.175201 -0.113226 0.000000
v 0.176693 -0.081078 0.000000
v 0.176293 -0.046693 0.000000
v 0.174459 -0.016480 0.000000
v 0.176113 0.014239 0.000000
v 0.176990 0.048428 0.000000
v 0.176890 0.082055 0.000000
v 0.175304 0.112591 0.000000
v 0.175363 0.144619 0.000000
v 0.176624 0.176288 0.000000
v 0.175829 0.208171 0.000000
v 0.175847 0.240385 0.000000
v 0.175002 0.274505 0.000000
v 0.173131 0.291989 0.000000
v 0.207283 -0.325827 0.000000
v 0.209598 -0.304652 0.000000
v 0.207780 -0.271726 0.000000
v 0.206941 -0.239740 0.000000
v 0.210355 -0.208048 0.000000
v 0.206579 -0.175223 0.000000
v 0.208931 -0.143990 0.000000
v 0.206861 -0.110371 0.000000
v 0.208593 -0.080106 0.000000
v 0.208094 -0.047944 0.000000
v 0.208710 -0.015643 0.000000
v 0.205851 0.015767 0.000000
v 0.206357 0.047641 0.000000
v 0.206933 0.080542 0.000000
v 0.207824 0.112074 0.000000
v 0.208542 0.143495 0.000000
v 0.209126 0.176157 0.000000
v 0.208248 0.207945 0.000000
v 0.207089 0.240162 0.000000
v 0.205564 0.273178 0.000000
v 0.206116 0.289755 0.000000
v 0.237469 -0.328120 0.000000
v 0.237032 -0.303776 0.000000
v 0.238259 -0.272696 0.000000
v 0.240235 -0.239447 0.000000
v 0.239816 -0.209172 0.000000
v 0.239871 -0.177024 0.000000
v 0.243006 -0.143619 0.000000
v 0.240235 -0.112226 0.000000
v 0.239780 -0.078725 0.000000
v 0.239615 -0.048152 0.000000
v 0.241329 -0.016255 0.000000
v 0.239574 0.015953 0.000000
v 0.238430 0.047079 0.000000
v 0.241791 0.079989 0.000000
v 0.243074 0.112327 0.000000
v 0.239907 0.144210 0.000000
v 0.239491 0.176317 0.000000
v 0.240920 0.207819 0.000000
v 0.239202 0.240740 0.000000
v 0.239097 0.273325 0.000000
v 0.227598 0.288149 0.000000
v 0.258356 -0.111223 0.000000
v 0.261445 -0.081634 0.000000
v 0.265184 -0.046830 0.000000
v 0.268475 -0.015833 0.000000
v 0.273479 0.014809 0.000000
v 0.271326 0.050129 0.000000
v 0.271999 0.079118 0.000000
v 0.270868 0.110679 0.000000
v 0.272254 0.142651 0.000000
v 0.272908 0.175185 0.000000
v 0.274446 0.208949 0.000000
v 0.271209 0.241117 0.000000
v 0.271736 0.272094 0.000000
v 0.290458 0.028795 0.000000
v 0.299004 0.053237 0.000000
v 0.304232 0.079652 0.000000
v 0.304710 0.112246 0.000000
v 0.304746 0.145440 0.000000
v 0.306877 0.176664 0.000000
v 0.305936 0.207675 0.000000
v 0.305527 0.239223 0.000000
v 0.306605 0.268731 0.000000
v 0.332330 0.083127 0.000000
v 0.331513 0.109402 0.000000
v 0.322662 0.141370 0.000000
v 0.320348 0.160450 0.000000
v 0.321612 0.245407 0.000000
v 0.323861 0.266389 0.000000
f 363 364 350
f 347 362 348
f 321 343 322
f 320 342 321
f 315 335 336
f 325 346 326
f 324 346 325
f 304 324 325
f 303 323 324
f 276 296 297
f 293 313 314
f 292 312 313
f 283 303 304
f 282 302 303
f 267 287 288
f 258 278 279
f 246 265 266
f 244 263 264
f 237 256 257
f 236 255 256
f 233 253 254
f 232 250 251
f 229 247 248
f 226 245 246
f 226 244 245
f 224 242 243
f 212 231 232
f 212 230 231
f 209 227 228
f 207 225 226
f 204 222 223
f 200 219 220
f 200 218 219
f 199 217 218
f 187 205 206
f 185 203 204
f 181 201 182
f 181 199 200
f 180 198 199
f 343 358 344
f 232 251 252
f 25 45 46
f 24 44 45
f 24 43 44
f 35 55 56
f 34 54 55
f 46 66 67
f 43 63 64
f 39 59 60
f 78 56 77
f 67 87 88
f 82 60 81
f 114 92 113
f 113 91 112
f 109 87 108
f 107 85 106
f 106 84 105
f 130 108 129
f 127 105 126
f 121 99 120
f 120 98 119
f 154 132 153
f 153 131 152
f 151 129 150
f 150 128 149
f 148 126 147
f 147 126 146
f 141 119 140
f 140 118 139
f 175 155 174
f 173 152 172
f 172 151 171
f 170 149 169
f 167 146 166
f 164 143 163
f 163 142 162
f 194 174 193
f 193 173 192
f 185 165 184
f 182 162 181
f 181 161 180
f 180 161 179
f 177 157 176
f 208 189 207
f 10 24 25
f 29 14 28
f 26 12 25
f 352 367 353
f 368 376 377
f 355 370 356
f 367 375 376
f 27 26 47
f 48 69 70
f 334 355 335
f 332 354 333
f 347 361 362
f 347 360 361
f 321 342 343
f 315 314 335
f 324 345 346
f 304 303 324
f 276 275 296
f 293 292 313
f 292 291 312
f 283 282 303
f 282 281 302
f 267 266 287
f 282 260 281
f 258 257 278
f 246 245 265
f 244 243 263
f 237 236 256
f 236 235 255
f 232 231 250
f 229 228 247
f 226 225 244
f 224 223 242
f 223 222 242
f 212 211 230
f 209 208 227
f 207 206 225
f 206 205 225
f 204 203 222
f 203 202 222
f 200 199 218
f 199 198 217
f 196 195 214
f 187 186 205
f 185 184 203
f 181 200 201
f 181 180 199
f 180 179 198
f 344 358 359
f 24 23 43
f 20 19 40
f 35 34 55
f 69 47 68
f 46 45 66
f 43 42 63
f 39 38 59
f 38 37 59
f 78 57 56
f 67 66 87
f 82 61 60
f 96 75 95
f 114 94 93
f 114 93 92
f 113 92 91
f 109 88 87
f 107 86 85
f 106 85 84
f 130 109 108
f 127 107 106
f 127 106 105
f 121 100 99
f 120 99 98
f 154 133 132
f 153 132 131
f 151 130 129
f 150 129 128
f 148 127 126
f 141 120 119
f 140 119 118
f 137 117 116
f 173 153 152
f 172 152 151
f 170 150 149
f 167 147 146
f 164 144 143
f 163 143 142
f 194 175 174
f 193 174 173
f 185 166 165
f 182 163 162
f 181 162 161
f 177 159 158
f 177 158 157
f 10 9 24
f 175 156 155
f 29 15 14
f 352 366 367
f 368 367 376
f 355 369 370
f 332 353 354
f 350 364 351
f 332 352 353
f 334 354 355
f 334 333 354
f 351 365 366
f 73 52 72
f 52 51 72
f 51 50 71
f 50 49 70
f 49 48 70
f 382 375 381
f 375 374 381
f 366 365 374
f 374 380 381
f 374 373 380
f 365 364 373
f 373 372 380
f 379 378 384
f 370 369 378
f 378 369 377
f 369 368 377
f 369 354 368
f 369 355 354
f 354 353 368
f 353 367 368
f 13 5 4
f 13 14 5
f 27 28 13
f 28 14 13
f 12 13 3
f 12 3 2
f 10 11 1
f 31 17 16
f 31 30 51
f 30 16 15
f 15 16 6
f 16 7 6
f 30 15 29
f 18 37 38
f 24 9 23
f 186 167 166
f 186 168 167
f 186 187 168
f 187 188 168
f 188 169 168
f 189 170 169
f 189 190 170
f 190 171 170
f 190 172 171
f 191 190 209
f 192 191 210
f 194 193 213
f 158 138 137
f 158 159 138
f 159 139 138
f 159 160 139
f 160 140 139
f 161 141 140
f 162 142 141
f 142 121 120
f 143 122 121
f 143 144 122
f 144 123 122
f 144 145 123
f 145 124 123
f 155 134 133
f 156 135 134
f 116 117 95
f 117 96 95
f 118 97 96
f 119 98 97
f 123 102 101
f 123 124 102
f 124 103 102
f 124 125 103
f 125 104 103
f 132 111 110
f 132 133 111
f 133 112 111
f 133 134 112
f 134 113 112
f 135 114 113
f 136 115 114
f 98 99 77
f 99 78 77
f 99 100 78
f 100 79 78
f 102 103 81
f 103 82 81
f 103 104 82
f 104 83 82
f 105 84 83
f 109 110 88
f 110 89 88
f 111 90 89
f 112 91 90
f 95 75 74
f 78 79 57
f 79 58 57
f 80 59 58
f 82 83 61
f 83 62 61
f 84 63 62
f 84 85 63
f 85 64 63
f 85 86 64
f 86 65 64
f 87 66 86
f 66 65 86
f 88 89 67
f 89 68 67
f 93 72 71
f 93 73 72
f 93 94 73
f 75 54 74
f 76 55 75
f 55 54 75
f 59 37 58
f 41 40 61
f 63 42 62
f 42 41 62
f 65 44 64
f 44 43 64
f 66 45 65
f 45 44 65
f 33 32 53
f 36 35 56
f 37 36 57
f 39 19 38
f 19 18 38
f 40 19 39
f 22 21 41
f 43 23 42
f 23 22 42
f 25 24 45
f 315 294 314
f 294 293 314
f 363 371 372
f 363 362 371
f 197 178 196
f 178 177 196
f 198 179 197
f 179 178 197
f 202 183 201
f 183 182 201
f 205 186 204
f 186 185 204
f 197 196 215
f 217 198 216
f 198 197 216
f 201 200 220
f 221 202 220
f 202 201 220
f 222 202 221
f 224 205 223
f 205 204 223
f 225 205 224
f 227 208 226
f 208 207 226
f 229 210 228
f 210 209 228
f 230 211 229
f 211 210 229
f 213 212 232
f 215 214 233
f 217 216 236
f 218 217 236
f 219 218 237
f 222 221 240
f 242 222 241
f 244 225 243
f 225 224 243
f 227 226 246
f 247 228 246
f 228 227 246
f 249 230 248
f 230 229 248
f 250 231 249
f 231 230 249
f 234 233 254
f 255 235 254
f 235 234 254
f 258 238 257
f 238 237 257
f 259 239 258
f 239 238 258
f 242 241 261
f 243 242 262
f 265 245 264
f 245 244 264
f 267 247 266
f 247 246 266
f 268 248 267
f 248 247 267
f 250 249 270
f 251 250 270
f 255 254 276
f 256 255 276
f 280 259 279
f 259 258 279
f 281 260 280
f 260 259 280
f 263 262 283
f 286 265 285
f 265 264 285
f 287 266 286
f 266 265 286
f 268 267 288
f 271 291 292
f 271 270 291
f 293 272 292
f 272 271 292
f 280 279 300
f 302 281 301
f 281 280 301
f 284 283 304
f 287 286 307
f 311 290 310
f 290 289 310
f 312 291 311
f 291 290 311
f 296 275 295
f 275 274 295
f 298 277 297
f 277 276 297
f 301 300 321
f 302 301 322
f 303 302 323
f 326 304 325
f 306 305 326
f 306 327 328
f 308 307 329
f 307 328 329
f 308 329 330
f 309 330 331
f 332 311 331
f 311 310 331
f 333 312 332
f 312 311 332
f 313 312 333
f 296 295 316
f 319 298 318
f 298 297 318
f 322 343 344
f 323 344 345
f 328 327 349
f 327 348 349
f 329 328 350
f 328 349 350
f 329 350 351
f 318 317 339
f 317 338 339
f 318 339 340
f 319 340 341
f 320 341 342
f 345 344 359
f 345 359 360
f 331 352 332
f 335 355 356
f 335 357 336
f 335 356 357
f 351 366 352
f 364 365 351
f 364 363 372
f 51 71 72
f 50 70 71
f 48 47 69
f 26 25 46
f 47 26 46
f 376 375 383
f 375 382 383
f 367 366 375
f 366 374 375
f 365 373 374
f 372 373 364
f 379 384 385
f 370 378 379
f 28 47 48
f 28 27 47
f 13 4 3
f 27 12 26
f 27 13 12
f 12 2 11
f 25 12 11
f 11 2 1
f 11 10 25
f 17 7 16
f 17 8 7
f 31 16 30
f 30 50 51
f 30 49 50
f 30 29 49
f 29 48 49
f 29 28 48
f 115 94 114
f 186 166 185
f 207 187 206
f 207 188 187
f 189 169 188
f 207 189 188
f 190 208 209
f 190 189 208
f 191 209 210
f 191 172 190
f 192 210 211
f 193 211 212
f 193 192 211
f 193 212 213
f 178 159 177
f 179 159 178
f 179 160 159
f 179 161 160
f 183 163 182
f 183 164 163
f 184 164 183
f 184 165 164
f 192 172 191
f 192 173 172
f 158 137 157
f 161 140 160
f 162 141 161
f 165 144 164
f 165 145 144
f 166 145 165
f 166 146 145
f 168 147 167
f 168 148 147
f 169 148 168
f 169 149 148
f 171 150 170
f 171 151 150
f 174 153 173
f 174 154 153
f 174 155 154
f 138 117 137
f 139 117 138
f 139 118 117
f 142 120 141
f 143 121 142
f 146 124 145
f 146 125 124
f 146 126 125
f 149 127 148
f 149 128 127
f 152 130 151
f 152 131 130
f 155 133 154
f 156 134 155
f 118 96 117
f 119 97 118
f 122 100 121
f 122 101 100
f 123 101 122
f 126 104 125
f 126 105 104
f 128 107 127
f 129 107 128
f 129 108 107
f 131 109 130
f 131 110 109
f 132 110 131
f 135 113 134
f 136 114 135
f 101 79 100
f 101 80 79
f 102 80 101
f 102 81 80
f 105 83 104
f 108 86 107
f 108 87 86
f 111 89 110
f 112 90 111
f 97 75 96
f 97 76 75
f 98 76 97
f 98 77 76
f 80 58 79
f 81 59 80
f 81 60 59
f 84 62 83
f 90 69 68
f 90 68 89
f 91 69 90
f 91 70 69
f 92 70 91
f 92 71 70
f 93 71 92
f 54 53 74
f 77 55 76
f 77 56 55
f 40 60 61
f 40 39 60
f 41 61 62
f 47 67 68
f 47 46 67
f 33 53 54
f 34 33 54
f 36 56 57
f 37 57 58
f 21 40 41
f 21 20 40
f 22 41 42
f 176 196 177
f 176 195 196
f 183 203 184
f 183 202 203
f 196 214 215
f 197 215 216
f 215 233 234
f 216 234 235
f 216 215 234
f 216 235 236
f 218 236 237
f 219 237 238
f 220 238 239
f 220 219 238
f 221 239 240
f 221 220 239
f 222 240 241
f 240 259 260
f 240 239 259
f 241 260 261
f 241 240 260
f 242 261 262
f 243 262 263
f 249 268 269
f 249 248 268
f 249 269 270
f 251 270 271
f 252 271 272
f 252 251 271
f 254 274 275
f 254 253 274
f 254 275 276
f 256 276 277
f 257 277 278
f 257 256 277
f 261 260 282
f 262 282 283
f 262 261 282
f 263 283 284
f 264 284 285
f 264 263 284
f 268 288 289
f 269 268 290
f 268 289 290
f 270 290 291
f 270 269 290
f 273 293 294
f 273 272 293
f 278 298 299
f 278 277 298
f 279 299 300
f 279 278 299
f 280 300 301
f 284 304 305
f 285 284 306
f 284 305 306
f 286 306 307
f 286 285 306
f 287 307 308
f 288 308 309
f 288 287 308
f 289 309 310
f 289 288 309
f 301 321 322
f 302 322 323
f 305 304 326
f 306 326 327
f 306 328 307
f 308 330 309
f 309 331 310
f 313 333 334
f 314 313 335
f 313 334 335
f 296 316 317
f 297 317 318
f 297 296 317
f 298 320 299
f 298 319 320
f 299 321 300
f 299 320 321
f 322 344 323
f 323 345 324
f 326 346 347
f 326 347 348
f 326 348 327
f 329 351 330
f 330 352 331
f 330 351 352
f 316 338 317
f 316 337 338
f 318 340 319
f 319 341 320
f 345 360 346
f 346 360 347
f 348 363 349
f 348 362 363
f 349 363 350
